<?xml version="1.0" standalone="no"?><!DOCTYPE svg PUBLIC "-//W3C//DTD SVG 1.1//EN" "http://www.w3.org/Graphics/SVG/1.1/DTD/svg11.dtd"><svg class="icon" width="200px" height="200.00px" viewBox="0 0 1024 1024" version="1.1" xmlns="http://www.w3.org/2000/svg"><path fill="#7c2fd7" d="M188.196571 169.910857h194.267429l35.547429-66.011428H122.185143v297.216L188.196571 365.714286V169.910857z m0 665.892572v-194.084572l-66.011428-35.730286v295.826286h295.424l-35.328-66.011428H188.196571z m665.892572 0h-195.254857l-35.145143 66.011428h296.411428v-295.862857l-66.011428 35.401143v194.450286z m0-665.892572v193.462857l66.011428 35.584V103.862857h-296.045714l35.364572 66.011429h194.669714z m-305.627429 82.688l146.139429 77.019429L521.142857 0 347.684571 329.398857l146.139429-76.982857a58.953143 58.953143 0 0 1 54.637714 0.182857z m0 500.516572a58.002286 58.002286 0 0 1-54.418285 0l-146.139429-77.019429L521.142857 1005.714286l173.458286-329.398857-146.139429 76.8z m222.939429-222.939429l-77.019429 146.139429L1024 502.857143l-329.398857-173.458286 76.982857 146.139429a58.953143 58.953143 0 0 1-0.182857 54.637714zM270.884571 475.538286l77.019429-146.139429L18.285714 502.857143l329.398857 173.458286-76.982857-146.139429a58.953143 58.953143 0 0 1 0.182857-54.637714z"  /></svg>