<?xml version="1.0" standalone="no"?><!DOCTYPE svg PUBLIC "-//W3C//DTD SVG 1.1//EN" "http://www.w3.org/Graphics/SVG/1.1/DTD/svg11.dtd"><svg t="1544617646142" class="icon" style="" viewBox="0 0 1024 1024" version="1.1" xmlns="http://www.w3.org/2000/svg" p-id="6700" xmlns:xlink="http://www.w3.org/1999/xlink" width="200" height="200"><defs><style type="text/css"></style></defs><path d="M456.0384 428.0832c247.261867 0 419.7376-62.6688 419.7376-139.9296v-83.9168c0-77.2608-172.458667-139.9296-419.7376-139.9296S64.3072 126.958933 64.3072 204.2368v83.9168c0 77.2608 144.452267 139.9296 391.7312 139.9296zM405.248 762.862933c-169.813333-6.314667-269.0048-45.073067-321.160533-96.955733-13.294933 13.243733-19.780267 27.357867-19.780267 41.984v111.9232c0 77.277867 144.469333 139.8784 391.7312 139.8784 24.746667 0 48.8448-0.785067 72.4992-1.9968a307.234133 307.234133 0 0 1-123.2896-194.833067zM400.128 706.628267a306.3808 306.3808 0 0 1 70.4-194.7136c-5.3248 0.034133-10.4448 0.085333-15.889067 0.085333-200.482133 0-313.4976-41.1648-370.551466-97.928533-13.277867 13.277867-19.780267 27.357867-19.780267 42.001066v111.9232c0 71.168 122.965333 129.8944 335.8208 138.632534zM707.874133 456.072533c-139.093333 0-251.835733 112.725333-251.835733 251.835734 0 139.0592 112.7424 251.8016 251.835733 251.8016 139.076267 0 251.835733-112.725333 251.835734-251.8016-0.017067-139.1104-112.759467-251.835733-251.835734-251.835734z" fill="#43A047" p-id="6701"></path><path d="M568.7808 714.939733c0 13.550933-0.324267 23.125333-0.9728 28.791467a32.392533 32.392533 0 0 1-19.626667 26.2144c-5.717333 2.5088-12.3904 3.7376-20.002133 3.7376-7.2192 0-13.7216-1.160533-19.456-3.5328a31.9488 31.9488 0 0 1-13.8752-10.632533 31.8464 31.8464 0 0 1-6.2464-15.394134c-0.6656-5.563733-1.006933-15.291733-1.006933-29.166933v-23.108267c0-13.550933 0.324267-23.125333 0.9728-28.791466a32.392533 32.392533 0 0 1 19.626666-26.2144c5.717333-2.5088 12.3904-3.7376 20.002134-3.7376 7.2192 0 13.7216 1.160533 19.456 3.5328 5.768533 2.372267 10.376533 5.905067 13.8752 10.632533 3.498667 4.7104 5.5808 9.847467 6.2464 15.394133 0.6656 5.563733 1.006933 15.291733 1.006933 29.166934v23.108266z m-35.089067-44.3392c0-6.280533-0.3584-10.308267-1.058133-12.049066-0.682667-1.757867-2.116267-2.6112-4.283733-2.6112a4.829867 4.829867 0 0 0-4.215467 2.116266c-0.9728 1.416533-1.450667 5.597867-1.450667 12.544v62.993067c0 7.8336 0.324267 12.663467 0.955734 14.506667 0.648533 1.826133 2.133333 2.730667 4.471466 2.730666 2.389333 0 3.908267-1.058133 4.590934-3.1744 0.6656-2.0992 1.006933-7.133867 1.006933-15.069866v-61.986134zM614.536533 660.2752l-1.3312 14.5408c4.881067-10.410667 11.963733-15.940267 21.248-16.5376v38.894933c-6.161067 0-10.7008 0.836267-13.585066 2.491734s-4.6592 3.9936-5.341867 6.9632-1.006933 9.813333-1.006933 20.5312v43.6736h-33.672534v-110.574934h33.6896zM672.034133 703.095467h-31.5904v-7.441067c0-8.5504 0.989867-15.138133 2.9696-19.780267 1.962667-4.642133 5.922133-8.738133 11.861334-12.288 5.956267-3.566933 13.6704-5.341867 23.159466-5.341866 11.383467 0 19.968 1.9968 25.7536 6.0416s9.250133 8.96 10.410667 14.830933 1.757867 17.937067 1.757867 36.1984v55.5008h-32.750934v-9.813333c-2.048 3.925333-4.693333 6.894933-7.970133 8.874666a21.845333 21.845333 0 0 1-11.6224 2.9696c-5.888 0-11.281067-1.6384-16.213333-4.949333-4.898133-3.310933-7.3728-10.5472-7.3728-21.7088v-9.0624c0-8.277333 1.297067-13.9264 3.908266-16.930133s9.079467-6.5024 19.421867-10.496c11.042133-4.334933 16.964267-7.236267 17.749333-8.738134s1.160533-4.573867 1.160534-9.1648c0-5.7856-0.426667-9.557333-1.28-11.298133a4.437333 4.437333 0 0 0-4.3008-2.628267c-2.286933 0-3.703467 0.733867-4.2496 2.218667s-0.836267 5.290667-0.836267 11.451733v11.554134z m10.666667 15.172266c-5.376 3.925333-8.516267 7.236267-9.386667 9.898667-0.853333 2.6624-1.28 6.5024-1.28 11.502933 0 5.7344 0.375467 9.437867 1.109334 11.093334 0.768 1.672533 2.2528 2.491733 4.471466 2.491733 2.116267 0 3.4816-0.6656 4.130134-1.962667 0.631467-1.297067 0.955733-4.727467 0.955733-10.308266v-22.715734zM802.372267 702.0032h-31.744v-12.731733c0-4.4544-0.3584-7.4752-1.0752-9.045334s-2.048-2.389333-3.9936-2.389333-3.242667 0.699733-3.908267 2.0992c-0.6656 1.3824-1.006933 4.5056-1.006933 9.335467v52.1728c0 3.925333 0.494933 6.894933 1.501866 8.874666s2.474667 2.9696 4.420267 2.9696c2.286933 0 3.822933-1.041067 4.625067-3.106133 0.8192-2.048 1.211733-5.9392 1.211733-11.6736V725.333333h30.0032c-0.0512 8.840533-0.375467 15.4624-0.955733 19.882667a32.068267 32.068267 0 0 1-5.597867 13.585067c-3.140267 4.625067-7.236267 8.1408-12.288 10.496s-11.298133 3.5328-18.756267 3.5328c-9.506133 0-17.032533-1.621333-22.5792-4.864s-9.489067-7.799467-11.776-13.6704c-2.321067-5.870933-3.464533-14.1824-3.464533-24.968534v-31.402666c0-9.403733 0.955733-16.4864 2.833067-21.265067 1.877333-4.7616 5.922133-9.028267 12.0832-12.782933s13.6704-5.614933 22.493866-5.614934c8.789333 0 16.2816 1.8432 22.493867 5.563734 6.212267 3.7376 10.359467 8.430933 12.424533 14.097066s3.054933 13.687467 3.054934 24.081067zM847.035733 635.938133v134.894934H812.373333v-134.894934h34.6624zM935.3728 717.499733h-43.588267v23.927467c0 5.000533 0.3584 8.209067 1.0752 9.659733 0.7168 1.4336 2.116267 2.167467 4.164267 2.167467 2.542933 0 4.266667-0.9728 5.12-2.884267 0.8704-1.911467 1.297067-5.614933 1.297067-11.1104v-14.592h31.914666v8.174934c0 6.826667-0.426667 12.100267-1.28 15.7696-0.8704 3.669333-2.884267 7.560533-6.0416 11.741866s-7.185067 7.304533-12.049066 9.386667c-4.846933 2.082133-10.9568 3.1232-18.2784 3.1232-7.1168 0-13.380267-1.024-18.8416-3.072-5.444267-2.065067-9.6768-4.881067-12.714667-8.465067-3.0208-3.584-5.12-7.5264-6.280533-11.8272s-1.757867-10.564267-1.757867-18.807466v-32.238934c0-9.659733 1.297067-17.3056 3.908267-22.8864s6.877867-9.847467 12.834133-12.834133 12.782933-4.4544 20.497067-4.4544c9.454933 0 17.237333 1.774933 23.381333 5.358933 6.126933 3.584 10.427733 8.328533 12.9024 14.250667 2.491733 5.922133 3.720533 14.2336 3.720533 24.951467v14.660266z m-33.757867-18.005333v-8.072533c0-5.7344-0.3072-9.437867-0.9216-11.093334s-1.860267-2.491733-3.754666-2.491733c-2.338133 0-3.7888 0.7168-4.334934 2.133333s-0.836267 5.239467-0.836266 11.4688v8.072534h9.847466z" fill="#FFFFFF" p-id="6702"></path></svg>