<?xml version="1.0" standalone="no"?><!DOCTYPE svg PUBLIC "-//W3C//DTD SVG 1.1//EN" "http://www.w3.org/Graphics/SVG/1.1/DTD/svg11.dtd"><svg t="1544617464198" class="icon" style="" viewBox="0 0 1025 1024" version="1.1" xmlns="http://www.w3.org/2000/svg" p-id="3048" xmlns:xlink="http://www.w3.org/1999/xlink" width="200.1953125" height="200"><defs><style type="text/css"></style></defs><path d="M560.768 834.176c17.408-3.072 33.728-6.144 49.472-11.328 91.776-30.208 157.12-90.176 198.4-177.152 3.392-7.232 1.28-9.152-5.632-11.008a1723.2 1723.2 0 0 1-56.64-16.896c-17.728-5.504-22.016-22.336-8.576-35.2a59441.856 59441.856 0 0 1 193.088-182.784c13.184-12.48 30.656-7.04 34.752 10.816 19.84 86.144 39.68 172.288 59.136 258.56 4.352 19.2-8.064 29.952-27.008 24.192-17.92-5.44-35.84-10.368-53.44-16.64-8.512-3.2-11.2-0.704-14.464 6.848-47.168 110.08-125.248 190.336-234.24 240.192-14.08 6.464-28.544 12.032-43.328 16.64-2.432 0.768-4.48 2.944-7.04-0.96-20.608-32.64-48.192-59.776-71.936-89.984-3.84-4.992-8-9.728-12.544-15.296z m266.624-395.328a328.256 328.256 0 0 0-26.56-70.784c-40.192-76.16-101.568-127.68-182.528-156.416-7.552-2.752-10.56-1.6-12.8 6.464-5.376 19.712-11.648 39.104-17.792 58.56-6.144 19.584-24.128 23.808-38.016 8.704-58.88-64.256-117.76-128.64-176.448-193.088-13.888-15.232-8.512-31.552 11.712-35.968L636.8 1.536c2.432-0.512 4.864-0.96 7.296-1.28 14.592-2.112 25.472 10.112 21.12 24.256-5.504 18.176-11.264 36.288-17.6 54.208-2.496 7.168-1.792 9.728 6.144 12.48 126.848 43.52 217.536 126.848 272.384 249.28 3.84 8.576 3.264 12.544-5.952 15.808a60.16 60.16 0 0 0-20.736 14.336c-21.12 20.288-42.368 40.448-63.616 60.672-2.432 2.368-5.056 4.48-8.512 7.552z m-403.2-230.144a335.232 335.232 0 0 0-93.312 46.528 325.312 325.312 0 0 0-109.888 136.832c-3.008 6.912-1.664 8.576 5.376 9.984 17.92 3.648 35.648 8.192 53.44 12.48 17.664 4.288 23.296 21.504 10.88 34.752-60.864 64.448-121.792 128.704-182.912 192.896-12.928 13.632-30.464 9.088-35.584-9.216C48.256 547.2 24.512 461.44 0.832 375.552c-4.096-14.72 7.616-27.136 22.528-23.808 20.928 4.672 41.856 9.536 62.656 15.04 7.36 1.92 10.24 0.32 12.864-6.784C141.44 248.128 217.024 166.4 323.968 113.024c6.848-3.392 10.368-2.56 15.488 3.2 27.52 30.72 55.68 60.864 84.8 92.48z m-220.224 384c25.6 96.064 82.752 165.76 170.048 211.264 7.872 4.16 10.432 2.112 13.056-5.504 5.952-16.896 12.608-33.536 19.328-50.24 6.784-16.96 23.04-19.84 34.56-5.888 56.128 67.648 112.128 135.36 168 203.2 13.824 16.768 7.616 31.36-14.08 34.944l-256.832 41.6c-2.432 0.448-4.928 0.704-7.36 0.896-16.96 1.28-26.88-11.328-20.992-27.264 7.68-20.48 15.616-40.704 24-60.8 2.56-6.272 1.6-8.704-4.672-11.648-103.68-48.512-177.664-126.08-224.704-230.08-3.328-7.296-2.752-9.92 5.312-11.648 8.832-1.856 15.488-8 21.632-14.464 21.504-22.4 42.88-44.928 64.448-67.328 2.368-2.432 4.096-5.76 8.256-7.04z" fill="#0FB3B3" p-id="3049"></path></svg>