<?xml version="1.0" standalone="no"?><!DOCTYPE svg PUBLIC "-//W3C//DTD SVG 1.1//EN" "http://www.w3.org/Graphics/SVG/1.1/DTD/svg11.dtd"><svg t="1544669823601" class="icon" style="" viewBox="0 0 1025 1024" version="1.1" xmlns="http://www.w3.org/2000/svg" p-id="14560" xmlns:xlink="http://www.w3.org/1999/xlink" width="200.1953125" height="200"><defs><style type="text/css"></style></defs><path d="M892.38883 825.727821C892.38883 880.479863 847.994786 924.865911 793.234731 924.865911L198.310187 924.865911C143.550131 924.865911 99.156096 880.479863 99.156096 825.727821L99.156096 230.905267C99.156096 176.153216 143.550131 131.769173 198.310187 131.769173L594.924553 131.769173 694.08064 32.631083 165.256149 32.631083C73.994069 32.631083 0 106.609152 0 197.857237L0 858.771849C0 950.025933 73.994069 1024 165.256149 1024L826.284766 1024C917.550848 1024 991.542921 950.025933 991.542921 858.773845L991.542921 330.043358 892.38883 429.181449 892.38883 825.727821ZM831.167471 301.639262 582.725436 550.081297C597.232998 600.857771 582.725436 658.88803 542.829636 698.783829 495.680051 745.933414 424.955674 756.814089 366.925414 729.612399L470.291814 626.246007C490.23971 606.298103 490.23971 573.65609 470.291814 553.708186 450.34391 533.76029 417.701897 533.76029 397.753993 553.708186L294.387601 657.074586C267.185911 599.044326 276.253141 528.319949 325.216171 481.170364 365.11197 441.274564 423.142229 428.580446 473.918703 441.274564L720.547294 194.645973C706.039731 143.8695 720.547294 85.839249 760.443093 45.943441 809.406123-3.019588 880.1305-12.08681 936.347307 15.114871L832.980915 118.481263C813.033011 138.429167 813.033011 171.071181 832.980915 191.019085 852.928819 210.966989 885.570833 210.966989 905.518737 191.019085L1008.885129 87.652693C1036.08681 145.682944 1027.019588 216.407322 978.056559 263.556907 939.974204 303.452706 881.943945 316.146825 831.167471 301.639262Z" p-id="14561" fill="#29ddbc"></path></svg>