<?xml version="1.0" standalone="no"?><!DOCTYPE svg PUBLIC "-//W3C//DTD SVG 1.1//EN" "http://www.w3.org/Graphics/SVG/1.1/DTD/svg11.dtd"><svg t="1544622558355" class="icon" style="" viewBox="0 0 1070 1024" version="1.1" xmlns="http://www.w3.org/2000/svg" p-id="1932" xmlns:xlink="http://www.w3.org/1999/xlink" width="208.984375" height="200"><defs><style type="text/css"></style></defs><path d="M1023.535687 883.965895h-93.048699v93.048699a46.524349 46.524349 0 0 1-93.048699 0v-93.048699h-93.048698a46.524349 46.524349 0 0 1 0-93.048698h93.048698v-93.048699a46.524349 46.524349 0 0 1 93.048699 0v93.048699h93.048699a46.524349 46.524349 0 0 1 0 93.048698zM837.438289 232.625004a372.56699 372.56699 0 0 0-313.015822-133.524883 412.810552 412.810552 0 1 0 0 825.341958 480.456956 480.456956 0 0 0 104.307591-12.561574c65.134089-19.540227 104.028445 65.599333 25.262722 95.84016a384.802894 384.802894 0 0 1-129.570313 15.818279 511.767843 511.767843 0 1 1 0-1023.535687 529.121426 529.121426 0 0 1 393.223801 173.07058C974.126828 245.186578 897.919944 301.481041 837.438289 232.625004z m-279.146096 186.097397a46.524349 46.524349 0 0 1 46.524349 46.52435v93.048699h93.048699a46.524349 46.524349 0 0 1 0 93.048698h-93.048699v93.048699a46.524349 46.524349 0 0 1-93.048699 0v-93.048699H418.719145a46.524349 46.524349 0 0 1 0-93.048698h93.048698v-93.048699a46.524349 46.524349 0 0 1 46.52435-46.52435z" p-id="1933" fill="#13227a"></path></svg>