<?xml version="1.0" standalone="no"?><!DOCTYPE svg PUBLIC "-//W3C//DTD SVG 1.1//EN" "http://www.w3.org/Graphics/SVG/1.1/DTD/svg11.dtd"><svg class="icon" width="200px" height="200.00px" viewBox="0 0 1024 1024" version="1.1" xmlns="http://www.w3.org/2000/svg"><path fill="#7c2fd7" d="M316.096 442.784l402.656-1.824-193.632 486.784-209.024-484.96z m46.144-176.448l306.72 2.72 54.304 118.528-398.112-2.72 37.088-118.528z m-87.744 114.912L32 279.936l130.304-96.8L317.92 263.68l-43.424 117.568zM32 338.752l229.824 102.208L508.8 924.128 32 338.752z m744.672 101.312L992 328.768 538.688 921.44l237.984-481.376z m-4.544-59.712l-60.64-124.832 138.432-76.896 119.424 100.448-197.216 101.28zM357.76 206.624l-52.512-13.568-98.624-55.168 115.808-41.632h378.208l114.912 47.968-110.368 53.376-37.088 9.024H357.76z m0 0"  /></svg>