<?xml version="1.0" standalone="no"?><!DOCTYPE svg PUBLIC "-//W3C//DTD SVG 1.1//EN" "http://www.w3.org/Graphics/SVG/1.1/DTD/svg11.dtd"><svg t="1544622938545" class="icon" style="" viewBox="0 0 1024 1024" version="1.1" xmlns="http://www.w3.org/2000/svg" p-id="2594" xmlns:xlink="http://www.w3.org/1999/xlink" width="200" height="200"><defs><style type="text/css"></style></defs><path d="M512.682 702.84zM60.538 0l82.175 921.652L511.438 1024l369.768-102.508L963.462 0H60.538z m732.197 210.792l-27.793 311.495-19.25 214.922-1.685 19.09-231.847 64.289-231.526-64.289-15.841-177.504H378.25l8.061 90.156 126.01 33.969 0.32-0.08h0.08l125.69-33.93 13.194-146.583h-263.85l-2.246-25.386-5.174-57.31-2.687-30.32h283.984l10.347-115.743H239.407l-2.246-25.426-5.174-57.31-2.687-30.32h566.202l-2.727 30.32z" fill="#006400" p-id="2595"></path></svg>