<?xml version="1.0" standalone="no"?><!DOCTYPE svg PUBLIC "-//W3C//DTD SVG 1.1//EN" "http://www.w3.org/Graphics/SVG/1.1/DTD/svg11.dtd"><svg class="icon" width="200px" height="200.00px" viewBox="0 0 1024 1024" version="1.1" xmlns="http://www.w3.org/2000/svg"><path fill="#7c2fd7" d="M856.96 565.227c-33.387 0.213-62.4 8.213-86.613 20.16-8.96-17.707-17.92-33.28-19.414-44.8-1.706-13.44-3.733-21.654-1.706-37.76C751.253 486.72 760.64 464 760.64 462.08c-0.213-1.707-2.027-9.92-21.333-10.133-19.2-0.214-35.84 3.733-37.76 8.746-1.92 5.014-5.654 16.64-8 28.587-3.414 17.6-38.507 79.787-58.454 112.427-6.506-12.694-12.16-23.894-13.226-32.854-1.707-13.44-3.734-21.653-1.707-37.76s11.413-38.826 11.413-40.746c-0.213-1.707-2.026-9.92-21.333-10.134-19.2-0.213-35.84 3.734-37.76 8.747-1.92 5.013-3.947 16.96-8 28.587-3.947 11.626-50.56 115.413-62.72 142.506-6.187 13.867-11.627 24.854-15.467 32.32-3.946 7.467-0.213 0.534-0.533 1.28-3.413 6.4-5.227 9.92-5.227 9.92v0.214c-2.666 4.693-5.44 9.173-6.72 9.173-0.96 0-2.773-12.48 0.427-29.653 6.933-36.054 23.68-92.267 23.573-94.294 0-0.96 3.2-10.88-10.88-15.893-13.653-5.013-18.453 3.413-19.626 3.413s-2.027 2.987-2.027 2.987 15.04-63.253-29.013-63.253c-27.627 0-65.707 30.08-84.587 57.493a37856.74 37856.74 0 0 0-64.213 35.093c-10.24 5.654-20.907 11.627-31.04 16.96l-2.027-2.24c-53.44-56.96-152.213-97.28-148.053-173.866 1.493-27.84 11.2-101.227 189.76-190.08 146.24-72.854 263.36-52.8 283.626-8.427 28.907 63.467-62.613 181.547-214.613 198.507-57.92 6.506-88.32-15.894-96-24.32-8-8.747-9.173-9.174-12.16-7.467-4.907 2.667-1.92 10.453 0 15.147 4.48 11.733 23.147 32.64 54.933 43.093 27.84 9.173 95.787 14.187 178.027-17.6 92.053-35.627 163.947-134.613 142.827-217.387-21.44-84.266-161.174-111.893-293.227-64.96-78.613 28.054-163.733 71.68-225.067 129.067C41.6 373.44 30.08 432.747 34.88 457.387c16.96 88 138.24 145.28 186.773 187.733-2.453 1.28-4.693 2.667-6.72 3.733C190.613 660.8 98.24 709.227 75.093 760.32c-26.133 57.92 4.16 99.52 24.32 105.173 62.4 17.387 126.294-13.866 160.747-65.173 34.347-51.307 30.293-118.08 14.4-148.48l-0.533-1.173 19.093-11.2c12.373-7.254 24.427-13.974 35.093-19.84-5.973 16.213-10.24 35.52-12.48 63.466-2.666 32.854 10.88 75.414 28.587 92.267 7.893 7.253 17.173 7.467 22.933 7.467 20.587 0 29.867-16.96 40.107-37.334 12.693-24.853 23.893-53.546 23.893-53.546s-13.973 77.866 24.32 77.866c13.974 0 28.054-18.133 34.347-27.413v0.213s0.427-0.533 1.173-1.92c1.494-2.24 2.24-3.52 2.24-3.52v-0.426c5.654-9.707 18.134-31.894 36.8-68.694 24.107-47.466 47.254-106.773 47.254-106.773s2.24 14.613 9.173 38.507c4.16 14.186 13.12 29.653 19.947 44.8-5.654 7.893-8.96 12.373-8.96 12.373l0.213 0.213a485.132 485.132 0 0 1-14.72 18.667c-19.093 22.827-41.813 48.747-44.8 56.213-3.52 8.747-2.773 15.36 4.16 20.587 5.013 3.733 13.973 4.48 23.573 3.733 17.174-1.173 29.12-5.44 35.094-8 9.386-3.413 19.946-8.426 30.293-15.893 18.667-13.867 30.08-33.387 28.907-59.627-0.534-14.4-5.227-28.586-10.987-42.026 1.707-2.454 3.413-4.907 5.013-7.467 29.547-43.093 52.267-90.56 52.267-90.56s2.24 14.613 9.173 38.507c3.52 12.16 10.667 25.386 16.96 38.506-27.626 22.614-45.013 48.747-50.986 65.92-10.987 31.787-2.454 46.08 13.866 49.494 7.254 1.493 17.707-1.92 25.6-5.227 9.707-3.2 21.44-8.64 32.32-16.64 18.667-13.867 36.587-33.067 35.627-58.987-0.533-11.946-3.733-23.68-8-34.88 23.573-9.706 53.973-15.36 92.587-10.666 83.093 9.706 99.52 61.653 96.32 83.306-3.2 21.654-20.587 33.6-26.347 37.334-5.76 3.52-7.68 4.906-7.147 7.466 0.747 3.947 3.414 3.734 8.427 2.987 6.933-1.173 43.733-17.707 45.227-57.707 2.026-51.52-46.72-107.626-133.227-106.986z m-640.853 216c-27.414 30.08-66.134 41.493-82.56 31.786-17.707-10.24-10.88-54.506 22.933-86.506 20.587-19.414 47.253-37.334 64.853-48.32 3.947-2.454 9.92-5.974 16.96-10.24 1.174-0.747 1.92-1.174 1.92-1.174 1.28-0.746 2.774-1.706 4.267-2.666 12.48 45.653 0.533 85.653-28.373 117.12zM416.853 644.8c-9.493 23.36-29.653 83.307-41.813 79.893-10.453-2.773-16.853-48.213-2.027-93.013 7.467-22.613 23.36-49.493 32.64-59.947 15.147-16.853 31.574-22.4 35.627-15.466 4.907 8.96-18.453 73.92-24.427 88.533z m165.654 79.147c-4.16 2.026-7.894 3.52-9.494 2.453-1.28-0.747 1.707-3.52 1.707-3.52s20.693-22.187 28.907-32.533c4.693-5.974 10.24-12.907 16.213-20.694v2.24c0 26.88-25.813 44.8-37.333 52.054z m127.68-29.12c-2.987-2.24-2.667-9.174 7.466-30.827 3.947-8.64 12.907-22.933 28.374-36.587 1.92 5.654 2.986 10.987 2.773 16.107-0.107 33.493-24 46.08-38.613 51.307z"  /></svg>