<?xml version="1.0" standalone="no"?><!DOCTYPE svg PUBLIC "-//W3C//DTD SVG 1.1//EN" "http://www.w3.org/Graphics/SVG/1.1/DTD/svg11.dtd"><svg t="1544670070492" class="icon" style="" viewBox="0 0 1024 1024" version="1.1" xmlns="http://www.w3.org/2000/svg" p-id="16198" xmlns:xlink="http://www.w3.org/1999/xlink" width="200" height="200"><defs><style type="text/css"></style></defs><path d="M511.957092 1024l-13.488104-6.996954A855.398699 855.398699 0 0 1 6.15319 212.353338v-33.72026h33.72026A865.767679 865.767679 0 0 0 491.724936 16.86013L511.957092 0l20.232156 16.86013a865.767679 865.767679 0 0 0 451.851486 161.520046h33.72026v33.72026a856.74751 856.74751 0 0 1-492.062896 805.408414zM73.59371 245.736396a777.420598 777.420598 0 0 0 438.363382 703.91043 786.946571 786.946571 0 0 0 438.363382-703.82613A986.907714 986.907714 0 0 1 511.957092 87.335474 980.416564 980.416564 0 0 1 73.59371 245.736396z" p-id="16199" fill="#d4237a"></path><path d="M578.301704 523.422738a232.163991 232.163991 0 0 0 144.407014-17.703136 235.114514 235.114514 0 0 0-144.407014-17.871738 231.742488 231.742488 0 0 0 116.081995-87.588376 234.102906 234.102906 0 0 0-133.953733 56.734338 232.754096 232.754096 0 0 0 56.818638-133.785132 232.669795 232.669795 0 0 0-87.672676 115.913394A231.152383 231.152383 0 0 0 511.957092 294.967976a234.102906 234.102906 0 0 0-17.871738 144.154112 231.405285 231.405285 0 0 0-87.841278-115.913394 233.428501 233.428501 0 0 0 56.818639 133.785132 233.428501 233.428501 0 0 0-134.038035-56.734338 233.006998 233.006998 0 0 0 116.166297 87.504075 232.922697 232.922697 0 0 0-143.985511 17.956039 235.114514 235.114514 0 0 0 144.407014 17.871737A231.742488 231.742488 0 0 0 329.530484 611.179715a234.777311 234.777311 0 0 0 133.953734-56.734338 232.754096 232.754096 0 0 0-56.818639 133.785133 232.669795 232.669795 0 0 0 87.672677-115.913395A231.152383 231.152383 0 0 0 511.957092 716.471227a234.102906 234.102906 0 0 0 17.871738-144.154112 232.669795 232.669795 0 0 0 87.841277 115.913395 233.428501 233.428501 0 0 0-56.818638-133.785133 233.428501 233.428501 0 0 0 133.953733 56.734338 234.861612 234.861612 0 0 0-116.503498-87.756977z" p-id="16200" fill="#d4237a"></path></svg>