<?xml version="1.0" standalone="no"?><!DOCTYPE svg PUBLIC "-//W3C//DTD SVG 1.1//EN" "http://www.w3.org/Graphics/SVG/1.1/DTD/svg11.dtd"><svg t="1544670454688" class="icon" style="" viewBox="0 0 1608 1024" version="1.1" xmlns="http://www.w3.org/2000/svg" p-id="22107" xmlns:xlink="http://www.w3.org/1999/xlink" width="314.0625" height="200"><defs><style type="text/css"></style></defs><path d="M820.828205 126.77658c-44.009492 180.570508-41.158379 170.847481-81.073965 336.065841-4.971172 20.469531-12.866563 26.317969-33.628516 26.683496h-45.17918c-18.203262-0.292422-25.733125-5.044277-31.069824-22.882012C591.203927 342.876346 539.445255 171.078494 504.573946 56.083592c-12.866563-42.401172-4.386328-41.450801 29.242188-40.50043 11.550664 0.292422 22.882012 0 34.505781 0 16.010098 0.292422 24.124805 6.28707 28.511133 22.297168 11.331348 40.50043 18.934316 71.64336 83.559551 326.927657 1.315898 4.971172 2.924219 9.723027 4.386328 14.401777h3.509063c1.535215-6.28707 3.435957-12.208613 5.044277-18.495683 24.490332-103.371133 48.615137-206.961583 73.105469-310.259611 7.602969-32.093301 21.054375-35.236836 53.366992-35.236836h23.905489c21.712324 0.365527 28.291816 4.751855 33.628515 26.098653 18.861211 73.470996 73.836524 319.690216 83.851973 346.739239 16.010098-57.534004-5.629121 24.782754 89.481094-342.352911 6.579492-25.440703 12.866563-30.484981 38.672793-30.484981h39.842481c16.960469 0.365527 21.931641 5.702227 17.91084 22.297168-7.529863 29.827031-9.065078 31.14293-129.689102 417.432228-9.723027 31.069824-13.158984 33.920938-45.837129 33.920938h-33.336094c-22.882012 0-28.87666-4.093906-34.505781-26.391075-13.524512-50.881406-73.178574-300.536583-82.901602-335.773418zM394.330899 476.001405c-9.723027-13.451406-18.276367-28.218711-27.926289-43.936387-12.281719 10.380977-22.955117 21.054375-34.871308 29.827031-55.267735 40.208008-116.530117 50.881406-181.228458 29.827032-45.837129-14.767305-74.128945-48.322715-82.901602-95.475743-8.187813-43.643965-5.336699-86.337559 23.247539-124.05998 30.119453-39.842481 72.228203-56.218106 119.892969-62.797598 44.594336-5.921543 88.018985 1.60832 131.589845 9.723027 17.033574 3.143535 17.325996 3.143535 17.325996-14.109355 0-25.440703 1.900742-51.173828-7.529864-76.029688a67.403242 67.403242 0 0 0-44.886758-43.278438c-46.7875-14.767305-92.990156-8.480234-138.534863 5.3367-16.010098 4.67875-31.435352 11.62377-47.372344 16.960468-17.618418 5.921543-23.905488 2.485586-25.806231-16.083203a128.446309 128.446309 0 0 1 2.193165-38.014844 26.829707 26.829707 0 0 1 12.939668-15.352148A314.061094 314.061094 0 0 1 244.830215 2.716599c34.578887-0.877266 69.084668-1.242793 102.713184 9.503711C407.855411 30.642888 438.632814 73.04406 447.113048 133.648494c4.67875 34.871309 2.778008 200.016563 2.778008 209.812696-0.292422 30.119453 6.28707 58.045742 19.811582 84.436816 11.62377 22.662695 10.015449 28.291816-11.331348 42.401172l-19.738476 13.158985c-18.861211 12.281719-31.14293 10.746504-44.301915-7.529863z m-48.030293-193.437071c-69.450195-8.772656-76.32211-12.866563-119.673652-5.336699-40.792852 6.94502-63.455547 28.87666-67.549454 68.499824-4.386328 41.450801 13.890039 78.515274 61.554805 82.60918 28.949766 2.485586 56.291211-2.558691 82.024336-15.717676 32.020195-16.375625 52.416621-41.450801 56.218106-78.222851 1.242793-11.916191 0.292422-23.905488 0.877266-35.82168 0.657949-10.015449-4.020801-14.767305-13.451407-16.010098zM1441.639847 487.040331c-66.599082 26.683496-154.252539 18.495684-222.386836-6.287071-34.213359-12.281719-45.837129-35.82168-36.406524-71.277832 3.143535-10.96582 9.430605-15.132832 19.738477-11.696875 13.524512 4.386328 130.347051 60.01959 217.342559 11.989297 32.678145-18.276367 34.871309-77.564903-3.728379-94.232949-24.855859-10.380977-50.296563-19.153633-75.737266-28.511133-25.440703-9.503711-51.758672-16.375625-76.029688-27.999395-53.951836-26.098652-80.635332-70.327461-75.66416-130.931895 4.386328-52.782149 35.82168-87.361035 81.658809-107.465039 71.350938-31.435352 143.579141-23.174434 214.199024 5.117383 24.124805 9.649922 34.871309 45.471602 22.955117 68.426719-5.994648 11.62377-15.717676 7.822285-24.490332 4.971172-22.297168-6.579492-44.301914-15.352148-67.257031-19.738477a214.272129 214.272129 0 0 0-88.238301 1.242793c-35.090625 8.187813-49.638613 27.341445-48.322715 62.139649 0.584844 17.618418 10.015449 29.900137 23.832382 37.43 44.886758 24.855859 104.906348 38.599688 151.035899 57.168476 42.10875 16.594941 72.228203 46.7875 79.173223 92.62463 11.62377 74.713789-24.855859 129.981524-91.674258 157.030547z m-511.592071 511.007228c-44.594336 4.971172-89.846621 5.263594-135.098907 7.749179-190.585957 2.193164-368.963302-44.886758-537.617618-131.882266A1137.667307 1137.667307 0 0 1 8.991973 698.973085c-16.668047-15.64457-7.822285-33.920938 7.529863-30.411875 7.237441 1.535215 13.890039 5.629121 20.469531 9.430606 173.259961 100.446914 359.532696 163.244512 557.721623 192.194277 95.110215 13.816934 190.293536 19.446055 286.0617 14.767305a1538.139066 1538.139066 0 0 0 534.547188-122.232344c45.544707-19.446055 58.41127 22.004746 35.456153 38.380371-23.832383 16.960469-47.445449 34.505781-72.520626 49.273086-138.169336 82.316758-288.620391 129.39668-448.136524 147.673048z m548.583438-289.643868c-53.07457-2.778008-89.773516 2.558691-142.848086 7.529863-6.28707 0.657949-12.574141 1.900742-18.568789 0.950371-17.545313-2.485586-10.96582-16.30252-7.529863-19.153633a160.832032 160.832032 0 0 1 27.341445-18.495683c61.262383-31.727774 126.911094-38.965215 194.679864-33.336094 17.325996 1.315898 34.871309 5.336699 51.904883 10.088554 18.788106 5.336699 23.832383 13.524512 24.417226 32.970567 1.900742 46.129551-10.307871 89.481094-27.26834 131.589844a287.743126 287.743126 0 0 1-70.692988 106.149141c-7.822285 7.237441-16.668047 18.495684-28.291817 10.380976-10.673398-7.895391-0.292422-18.568789 2.558692-27.633867 14.401777-45.910234 31.727774-91.089414 43.643965-137.584492 11.62377-44.886758-2.851113-60.896856-49.346192-63.455547z" fill="#0e074a" p-id="22108" data-spm-anchor-id="a313x.7781069.0.i25" class="selected"></path></svg>