<?xml version="1.0" standalone="no"?><!DOCTYPE svg PUBLIC "-//W3C//DTD SVG 1.1//EN" "http://www.w3.org/Graphics/SVG/1.1/DTD/svg11.dtd"><svg class="icon" width="200px" height="200.00px" viewBox="0 0 1024 1024" version="1.1" xmlns="http://www.w3.org/2000/svg"><path d="M790.570667 800.512c0-15.701333 12.672-28.501333 28.266666-28.501333 15.573333 0 28.245333 12.8 28.245334 28.501333 0 15.722667-12.672 28.501333-28.245334 28.501333-15.594667 0-28.266667-12.8-28.266666-28.501333m113.28 0c0-47.146667-38.293333-85.482667-85.013334-85.482667-34.133333 0-54.677333 13.397333-69.098666 38.186667-26.24-14.528-29.653333-82.901333-31.253334-128.810667v-186.837333a86.570667 86.570667 0 0 0 59.157334-82.304c0-47.850667-38.442667-86.634667-85.909334-86.634667-47.445333 0-85.909333 38.784-85.909333 86.613334a86.570667 86.570667 0 0 0 58.282667 81.984v187.178666c1.770667 92.053333 6.016 156.992 73.642666 199.658667 9.386667 36.906667 42.176 61.930667 81.642667 61.930667 46.72 0 84.48-38.336 84.48-85.482667M507.370667 221.013333c-16.853333 0-30.506667-13.781333-30.506667-30.762666 0-16.96 13.653333-30.741333 30.506667-30.741334 16.853333 0 30.506667 13.781333 30.506666 30.741334 0 16.981333-13.653333 30.762667-30.506666 30.762666m30.656 494.101334v-438.4c27.882667-12.053333 57.6-44.394667 57.6-82.453334C595.626667 145.92 556.288 106.666667 508.394667 106.666667s-85.909333 39.274667-85.909334 87.594666c0 38.058667 17.962667 70.4 59.776 82.453334v438.4c-41.813333 12.053333-59.584 44.416-59.584 82.474666 0 48.298667 37.269333 87.594667 85.184 87.594667 47.872 0 87.253333-39.296 87.253334-87.594667 0-38.058667-29.226667-70.4-57.109334-82.474666" fill="#00C1DE" /><path d="M213.034667 829.013333c-15.573333 0-28.245333-12.8-28.245334-28.501333 0-15.701333 12.672-28.48 28.245334-28.48 15.573333 0 28.266667 12.778667 28.266666 28.48s-12.693333 28.501333-28.266666 28.501333m-0.533334 56.96c39.466667 0 72.234667-25.024 81.621334-61.909333 67.626667-42.666667 71.872-107.605333 73.664-199.637333v-187.2a86.506667 86.506667 0 0 0 58.24-81.962667c0-47.850667-38.442667-86.613333-85.909334-86.613333-47.424 0-85.909333 38.762667-85.909333 86.613333 0 38.4 24.832 70.954667 59.157333 82.282667v186.88c-1.578667 45.909333-4.970667 114.24-31.253333 128.768-14.4-24.768-34.922667-38.144-69.077333-38.144-46.72 0-85.034667 38.336-85.034667 85.461333 0 47.146667 37.76 85.482667 84.48 85.482667" fill="#e98f36" /></svg>