<?xml version="1.0" standalone="no"?><!DOCTYPE svg PUBLIC "-//W3C//DTD SVG 1.1//EN" "http://www.w3.org/Graphics/SVG/1.1/DTD/svg11.dtd"><svg class="icon" width="200px" height="200.00px" viewBox="0 0 1024 1024" version="1.1" xmlns="http://www.w3.org/2000/svg"><path fill="#7c2fd7" d="M440.32 595.626667a18.346667 18.346667 0 0 0-17.066667-14.08h-3.84l-104.533333 17.493333A208.64 208.64 0 0 0 398.933333 704l40.533334-97.706667a17.066667 17.066667 0 0 0 0.853333-10.666666zM405.76 520.533333a17.493333 17.493333 0 0 0 8.96-6.4 17.92 17.92 0 0 0-2.133333-24.746666L333.226667 418.56a207.786667 207.786667 0 0 0-29.44 131.84l101.546666-29.44z m137.813333-93.866666a18.773333 18.773333 0 0 0 3.84 10.24 17.92 17.92 0 0 0 24.746667 3.413333h0.426667l86.186666-61.013333A207.786667 207.786667 0 0 0 537.6 321.28l5.973333 105.386667z m-60.586666 125.013333l29.44 14.08 29.44-14.08 7.253333-31.573333-20.48-25.173334h-32.426667l-20.053333 25.173334 7.253333 31.573333z m-30.72-110.933333a17.066667 17.066667 0 0 0 10.24 3.413333 17.92 17.92 0 0 0 17.92-17.066667h0.426666l5.973334-105.813333a218.026667 218.026667 0 0 0-21.76 3.84 206.506667 206.506667 0 0 0-99.84 54.186667l87.04 61.44z m238.08-21.76l-78.933334 70.826666a19.2 19.2 0 0 0-5.546666 9.386667 17.493333 17.493333 0 0 0 12.8 20.906667l101.973333 29.44a209.066667 209.066667 0 0 0-4.266667-67.84 197.973333 197.973333 0 0 0-25.6-63.573334z"  /><path fill="#7c2fd7" d="M995.84 613.973333L912.64 251.733333a63.573333 63.573333 0 0 0-34.986667-43.52l-337.493333-160.853333a65.706667 65.706667 0 0 0-55.893333 0L146.346667 208.64a64.853333 64.853333 0 0 0-34.986667 43.52L28.16 613.973333a63.573333 63.573333 0 0 0 8.533333 49.066667l3.84 5.12 233.386667 290.56a64.853333 64.853333 0 0 0 50.346667 23.893333h374.613333a65.706667 65.706667 0 0 0 50.346667-23.893333l233.386666-290.56a64.853333 64.853333 0 0 0 12.8-54.613333z m-128.426667-4.266666a21.333333 21.333333 0 0 1-26.026666 14.933333h-0.853334l-5.12-1.28a171.52 171.52 0 0 1-17.92-6.826667 215.466667 215.466667 0 0 0-34.986666-10.24 16.213333 16.213333 0 0 0-11.52 4.266667l-8.533334-1.28a262.4 262.4 0 0 1-116.48 146.346667 53.76 53.76 0 0 0 3.413334 8.106666 15.786667 15.786667 0 0 0-1.28 11.946667 185.6 185.6 0 0 0 17.92 32 165.973333 165.973333 0 0 1 11.093333 16.213333l2.56 5.546667a20.48 20.48 0 1 1-36.693333 17.493333l-2.986667-6.4a134.826667 134.826667 0 0 1-5.973333-18.773333 204.373333 204.373333 0 0 0-14.08-34.133333 15.786667 15.786667 0 0 0-10.24-6.4l-4.266667-7.68a267.52 267.52 0 0 1-34.56 10.24 259.84 259.84 0 0 1-151.466667-11.093334l-4.266666 8.106667a15.786667 15.786667 0 0 0-8.533334 4.266667c-7.253333 8.533333-10.24 22.613333-15.786666 36.266666a146.346667 146.346667 0 0 1-5.973334 18.773334l-2.56 5.12a20.48 20.48 0 1 1-36.266666-17.493334l2.56-5.546666a130.56 130.56 0 0 1 11.093333-16.213334 196.693333 196.693333 0 0 0 18.346667-32.853333 20.48 20.48 0 0 0-1.706667-11.52l3.84-8.96a262.826667 262.826667 0 0 1-116.48-145.493333l-8.96 1.28a24.746667 24.746667 0 0 0-11.52-4.266667 170.666667 170.666667 0 0 0-34.986667 10.24 130.56 130.56 0 0 1-17.92 6.826667l-5.12 1.28h-0.853333a20.48 20.48 0 1 1-8.96-39.253334h0.426667l5.546666-1.28a173.653333 173.653333 0 0 1 19.2-1.28 193.28 193.28 0 0 0 36.266667-5.973333c3.413333-1.28 6.4-5.973333 8.533333-8.533333l8.533334-2.56a261.12 261.12 0 0 1 40.96-182.186667l-6.4-5.546667a24.32 24.32 0 0 0-3.84-11.52 184.32 184.32 0 0 0-29.866667-20.906666 174.933333 174.933333 0 0 1-16.64-9.813334l-4.266667-3.413333h-0.426666a21.333333 21.333333 0 0 1-5.12-29.866667 19.2 19.2 0 0 1 14.933333-6.4 26.026667 26.026667 0 0 1 14.08 5.12l4.266667 3.413334a177.92 177.92 0 0 1 13.226666 14.08 169.813333 169.813333 0 0 0 27.733334 24.746666 15.786667 15.786667 0 0 0 11.946666 1.28l7.253334 5.12a260.266667 260.266667 0 0 1 131.84-75.52 264.96 264.96 0 0 1 36.266666-5.546666v-8.533334a21.76 21.76 0 0 0 6.4-10.24 177.92 177.92 0 0 0-2.133333-36.693333 160.853333 160.853333 0 0 1-2.56-19.2v-5.546667c0-12.373333 8.96-22.613333 20.053333-22.613333s20.053333 10.24 20.053334 22.613333V192a147.2 147.2 0 0 1-2.56 19.2 177.92 177.92 0 0 0-2.133334 36.693333 15.36 15.36 0 0 0 6.826667 10.24c0 1.28 0.426667 6.4 0.426667 8.96a264.533333 264.533333 0 0 1 167.68 81.066667l7.68-5.546667a21.333333 21.333333 0 0 0 11.946666-1.28 212.906667 212.906667 0 0 0 27.306667-24.746666 142.08 142.08 0 0 1 13.226667-14.08l4.266666-3.413334a21.76 21.76 0 0 1 30.293334 1.706667c7.253333 8.533333 4.693333 22.186667-5.12 29.866667l-4.266667 3.413333c-5.546667 4.266667-11.093333 6.4-16.64 9.813333a184.32 184.32 0 0 0-29.866667 20.906667 15.786667 15.786667 0 0 0-3.84 11.52l-7.253333 6.4a264.106667 264.106667 0 0 1 37.973333 87.466667 258.133333 258.133333 0 0 1 4.266667 94.293333l8.106667 2.56c1.28 2.133333 4.266667 7.253333 8.533333 8.533333a193.28 193.28 0 0 0 36.266667 5.973334 173.653333 173.653333 0 0 1 19.2 1.28l5.973333 1.28c11.946667 3.413333 19.626667 14.08 17.493333 24.746666z"  /><path fill="#7c2fd7" d="M527.786667 634.026667a18.346667 18.346667 0 0 0-8.106667-7.68 16.64 16.64 0 0 0-8.533333-1.706667 18.346667 18.346667 0 0 0-14.933334 9.386667l-51.2 92.586666a208.213333 208.213333 0 0 0 113.92 5.973334 194.133333 194.133333 0 0 0 20.48-5.546667l-51.2-93.013333z m76.373333-52.48h-4.266667a17.92 17.92 0 0 0-15.786666 24.746666h-0.426667l40.96 98.56a207.36 207.36 0 0 0 84.053333-105.813333l-104.96-17.493333z"  /></svg>