<?xml version="1.0" standalone="no"?><!DOCTYPE svg PUBLIC "-//W3C//DTD SVG 1.1//EN" "http://www.w3.org/Graphics/SVG/1.1/DTD/svg11.dtd"><svg t="1544617400007" class="icon" style="" viewBox="0 0 1091 1024" version="1.1" xmlns="http://www.w3.org/2000/svg" p-id="2162" xmlns:xlink="http://www.w3.org/1999/xlink" width="213.0859375" height="200"><defs><style type="text/css"></style></defs><path d="M1082.245158 391.203186c-44.834137-66.302723-96.545141-99.445085-155.133012-99.445085-87.858308 0-206.059032 105.093976-226.692635 279.084626-13.755735 116.000766-1.006981 247.633231 38.263264 394.898395-87.687311-57.546892-145.747193-127.127552-174.213645-208.75498-43.314166 28.261456-65.466739 117.262742-66.456721 267.002858-98.063112-96.732137-147.111167-185.733423-147.111167-267.002858-43.929154 29.183438-86.236339 94.240185-126.871556 195.205241-53.092978-120.897672-83.283396-206.316027-90.519257-256.269065-19.251629 40.703216-46.387107 81.202436-81.406432 121.49566-35.891309-81.628428-45.397126-179.281547-28.56945-292.960358C43.263167 391.203186 148.187146 210.264671 350.901242 91.142965c-74.904558 5.972885-161.908882 45.669121-261.012973 119.122706C210.359949 62.881509 373.530807-7.021145 579.453841 0.554709c253.366121 9.300821 420.974893 139.517313 502.790317 390.648477z m-445.091428-9.419818a48.451067 48.451067 0 1 0 0-96.886134 48.451067 48.451067 0 0 0 0 96.885134z m13.227745-26.419492a26.419491 26.419491 0 1 1 0-52.853982 26.419491 26.419491 0 0 1 0 52.853982z" fill="#1296DB" p-id="2163"></path></svg>