<?xml version="1.0" standalone="no"?><!DOCTYPE svg PUBLIC "-//W3C//DTD SVG 1.1//EN" "http://www.w3.org/Graphics/SVG/1.1/DTD/svg11.dtd"><svg class="icon" width="200px" height="200.00px" viewBox="0 0 1024 1024" version="1.1" xmlns="http://www.w3.org/2000/svg"><path d="M510.505719 1.293274L29.768059 170.477037 105.737481 800.320474l405.276445 222.746548 407.369955-225.765452L994.322963 167.480889 510.505719 1.293274z" fill="#B3B3B3" /><path d="M946.373215 203.882193L509.383111 54.863644v914.985719l366.216533-202.679941 70.769778-563.287229z" fill="#A6120D" /><path d="M83.713896 206.567348l65.099852 563.294815 360.561778 199.9872V54.848474L83.717689 206.563556z" fill="#DD1B16" /><path d="M629.67277 541.953896L509.383111 598.20563H382.600533l-59.5968 149.067851-110.849896 2.048L509.383111 88.090548l120.289659 453.867141z m-11.628089-28.319289l-107.861333-213.53434-88.477392 209.859318h87.673363l108.665362 3.678815z" fill="#F2F2F2" /><path d="M509.379319 88.086756l0.796444 212.013511 100.389926 210.0224h-100.958815l-0.227555 87.946429 139.605333 0.132741 65.247763 151.1424 106.067437 1.964563-310.920533-663.222044z" fill="#B3B3B3" /></svg>