<?xml version="1.0" standalone="no"?><!DOCTYPE svg PUBLIC "-//W3C//DTD SVG 1.1//EN" "http://www.w3.org/Graphics/SVG/1.1/DTD/svg11.dtd"><svg class="icon" width="200px" height="200.00px" viewBox="0 0 1024 1024" version="1.1" xmlns="http://www.w3.org/2000/svg"><path fill="#7c2fd7" d="M475.554278 0.063996h167.413537v774.991563c-85.882632 16.286982-148.950691 22.814574-217.426411 22.814574-204.403225 0-310.924567-92.410224-310.924568-269.647147 0-170.709331 113.048934-281.582401 288.109994-281.582401 27.166302 0 47.83701 2.175864 72.827448 8.703456V0.031998z m0 390.08762a162.965815 162.965815 0 0 0-53.180676-8.735455l-3.551778 0.031998h0.15999c-84.826698 0-133.719643 52.188738-133.719643 143.511031 0 89.178426 46.749078 138.071371 132.631711 138.071371 18.462846 0 33.693894-1.055934 57.5964-4.351728V390.119618z"  /><path fill="#7c2fd7" d="M909.383164 258.607837v388.103744c0 133.719643-9.75939 197.875633-39.133555 253.296169-27.166302 53.27667-63.068058 87.002562-136.983438 123.928254l-155.478283-73.947378c73.947378-34.781826 109.817136-65.243922 132.631711-111.993001 23.934504-47.83701 31.51803-103.289544 31.51803-248.944441V258.543841h167.413537zM741.969627 0.95994h167.413537v171.765265h-167.413537V0.95994z"  /></svg>