<?xml version="1.0" standalone="no"?><!DOCTYPE svg PUBLIC "-//W3C//DTD SVG 1.1//EN" "http://www.w3.org/Graphics/SVG/1.1/DTD/svg11.dtd"><svg class="icon" width="200px" height="200.00px" viewBox="0 0 1024 1024" version="1.1" xmlns="http://www.w3.org/2000/svg"><path fill="#7c2fd7" d="M239.365646 641.146359H196.018396l33.810036-154.930605c2.573615-11.691273 3.482311-18.862603 2.775207-21.61325-0.50449-1.768273-3.784186-2.750647-9.890255-2.750648h-21.09341l-39.107693 179.294503h-42.388413l73.472362-336.681042h42.438554l-18.216897 83.605139h18.015306c28.41005 0 42.640146 18.076704 42.640146 54.230112 0 13.164834-1.917676 28.589129-5.803169 46.272883L239.365646 641.146359zM386.371768 641.146359h-86.643336c-20.588921 0-30.882358-16.013719-30.882358-48.139394 0-10.708899 1.362021-22.497387 4.188393-35.367509 6.257517-28.687366 15.188934-49.220005 26.845414-61.598939 10.344602-10.905374 23.868617-16.406668 40.520879-16.406669h36.988426c1.564635-9.431813 2.018983-15.129582 1.362021-16.897855-1.311879-3.241834-6.509251-4.91187-15.643282-4.91187h-60.402695l15.188934-69.359694h66.861803c13.877055 0 23.868617 4.125971 29.974686 12.378935 7.064906 9.530051 10.546194 23.283286 10.546193 41.459251 0 13.656021-2.018983 29.767977-6.00476 48.041156l-32.900318 150.802588z m-50.966789-94.314039c-5.701862 0-9.738805 0.982374-12.110828 2.848884-3.027963 2.357697-5.398964 7.467065-7.115048 15.22782-0.302899 1.375324-0.605797 2.65241-0.958838 3.733021-0.353041 1.080611-0.353041 1.866511-0.101308 2.357697 0.908696 1.670036 3.279696 2.554172 7.115048 2.554172h35.07075l5.853312-26.722618h-27.753088zM533.266349 641.146359H469.936999c-16.45067 0-28.611641-8.940626-36.585243-26.820856-5.398964-12.280698-8.073886-27.312042-8.073886-45.388746 0-16.70138 2.320858-35.858696 7.01374-57.472969 8.175193-37.332257 19.630083-66.903759 34.465976-88.616271 15.844873-23.186072 33.810037-34.778084 53.893445-34.778084h24.271799l18.519796-83.60514h43.34725l-73.523527 336.682066zM521.357112 460.869482c-12.918217 0-22.556739 4.420683-29.015847 13.36131-6.762007 9.137101-12.918217 26.526143-18.519796 52.068889-3.683902 16.897855-4.844332 28.196179-3.532453 33.79571 1.766226 7.269567 8.628518 10.905374 20.537755 10.905374h14.129812l24.070209-110.131283h-7.66968zM620.000759 646.157489c-20.992103 0-35.323507-12.57541-43.094493-37.528731-3.532453-11.396561-5.298679-24.463158-5.29868-39.298028 0-17.389042 2.422166-37.135782 7.266497-59.241243 10.344602-47.353494 25.836435-81.738629 46.425356-103.254665 14.583137-15.22782 30.226418-22.890336 46.929846-22.890336s29.470195 8.645914 38.250162 25.936719c6.812149 13.361309 10.193153 30.259164 10.193153 50.693565 0 17.09433-2.372024 36.644595-7.115048 58.455344-8.275477 38.019918-20.639063 68.37732-37.039591 91.366917-17.055444 23.774473-35.878139 35.760458-56.517202 35.760458z m41.732474-190.199876c-6.206352 0-13.019525 4.91187-20.336164 14.736632-9.032724 11.985986-15.794731 28.392654-20.336164 49.220005-2.220574 10.021238-3.330862 19.35379-3.330862 27.999704 0 17.683754 4.238534 26.526143 12.666484 26.526144 8.326643 0 16.400528-6.581905 24.322965-19.844977 7.16519-12.084223 12.615319-26.624381 16.299221-43.620474 2.674922-12.18246 4.036943-22.497387 4.036943-31.045063-0.001023-16.014742-4.441149-23.971971-13.322423-23.971971zM769.065773 646.157489c-20.992103 0-35.323507-12.57541-43.094494-37.528731-3.532453-11.396561-5.298679-24.463158-5.298679-39.298028 0-17.389042 2.422166-37.135782 7.266497-59.241243 10.344602-47.353494 25.836435-81.738629 46.425356-103.254665 14.583137-15.22782 30.226418-22.890336 46.929845-22.890336s29.470195 8.645914 38.250163 25.936719c6.812149 13.361309 10.193153 30.259164 10.193153 50.693565 0 17.09433-2.372024 36.644595-7.115048 58.455344-8.275477 38.019918-20.639063 68.37732-37.039591 91.366917-17.056468 23.774473-35.878139 35.760458-56.517202 35.760458z m41.732474-190.199876c-6.206352 0-13.019525 4.91187-20.336164 14.736632-9.032724 11.985986-15.794731 28.392654-20.336164 49.220005-2.220574 10.021238-3.330862 19.35379-3.330862 27.999704 0 17.683754 4.238534 26.526143 12.666484 26.526144 8.326643 0 16.400528-6.581905 24.322965-19.844977 7.16519-12.084223 12.615319-26.624381 16.299221-43.620474 2.674922-12.18246 4.036943-22.497387 4.036943-31.045063-0.001023-16.014742-4.441149-23.971971-13.322423-23.971971zM1009.361605 521.780761c-17.359366 79.577407-46.979988 119.366621-88.812745 119.366621H896.983141l-18.115589 83.21219h-42.691311l73.372077-335.895143h62.97631c19.175735 0 32.345686 11.494799 39.461757 34.385135 3.330862 10.708899 4.995781 23.283286 4.995781 37.725206 0 17.585517-2.523473 38.019918-7.620561 61.205991z m-56.466036-62.188365h-15.996323l-24.221657 110.917183h2.826371c15.844873 0 27.652803-5.403057 35.424814-16.210194 6.408967-8.940626 11.909238-24.168446 16.652262-45.585221 4.087085-18.960841 5.601578-31.53625 4.440126-37.921681-1.414209-7.467065-7.772011-11.200086-19.125593-11.200087z"  /><path fill="#7c2fd7" d="M518.056949 1017.860163c-54.16462 0-109.203144-8.688893-163.398463-26.441209C178.475857 933.785326 51.832506 793.546328 15.858176 616.332207-20.646226 436.337763 43.206034 256.18573 186.696076 134.38671 330.62307 12.275581 519.369851-21.573341 691.707918 43.904952c16.533558 6.282077 24.816199 24.753777 18.534122 41.287336-6.282077 16.565281-24.753777 24.910343-41.287335 18.534121-150.178371-57.102532-314.983881-27.41028-440.845427 79.449494C102.68366 289.660122 46.800909 446.807209 78.617545 603.580788c31.317263 154.366763 141.958152 276.634458 295.949363 327.016939 154.429185 50.476625 316.63959 17.252943 433.6567-89.138157 13.06455-11.876492 33.317827-10.939143 45.194319 2.125407 11.908214 13.06455 10.939143 33.317827-2.125407 45.194319-93.044116 84.667332-210.843032 129.080867-333.235571 129.080867z"  /></svg>