<?xml version="1.0" standalone="no"?><!DOCTYPE svg PUBLIC "-//W3C//DTD SVG 1.1//EN" "http://www.w3.org/Graphics/SVG/1.1/DTD/svg11.dtd"><svg t="1544617536600" class="icon" style="" viewBox="0 0 1024 1024" version="1.1" xmlns="http://www.w3.org/2000/svg" p-id="4303" xmlns:xlink="http://www.w3.org/1999/xlink" width="200" height="200"><defs><style type="text/css"></style></defs><path d="M655.365266 166.765714c32.182857-43.885714 58.514286-105.325714 49.737143-166.765714-55.588571 2.925714-119.954286 38.034286-155.062857 84.845714-35.108571 40.96-61.44 102.4-52.662857 160.914286 58.514286 2.925714 122.88-32.182857 157.988571-78.994286zM950.862409 748.982857c-23.405714 52.662857-35.108571 76.068571-67.291428 122.88-43.885714 64.365714-105.325714 146.285714-178.468572 149.211429-67.291429 0-84.845714-43.885714-175.542857-43.885715s-111.177143 43.885714-175.542857 43.885715c-76.068571 0-131.657143-73.142857-175.542857-140.434286-119.954286-184.32-134.582857-397.897143-58.514286-514.925714 52.662857-81.92 137.508571-128.731429 213.577143-128.731429 78.994286 0 128.731429 43.885714 196.022857 43.885714 64.365714 0 102.4-43.885714 196.022857-43.885714 70.217143 0 143.36 38.034286 196.022857 102.4-172.617143 99.474286-146.285714 345.234286 29.257143 409.6z" fill="#5189F3" p-id="4304"></path></svg>