<?xml version="1.0" standalone="no"?><!DOCTYPE svg PUBLIC "-//W3C//DTD SVG 1.1//EN" "http://www.w3.org/Graphics/SVG/1.1/DTD/svg11.dtd"><svg class="icon" width="200px" height="69.21px" viewBox="0 0 2959 1024" version="1.1" xmlns="http://www.w3.org/2000/svg"><path fill="#7c2fd7" d="M348.736902 0 510.605821 0 510.605821 741.900083C427.692268 757.583764 366.652894 763.754055 300.613709 763.754055 102.912802 763.547691 0 675.223797 0 505.592391 0 342.15191 109.162567 236.080691 278.322879 236.080691 304.571893 236.080691 324.571142 238.144333 348.736902 244.33526L348.736902 0 348.736902 0ZM348.736902 373.312913C329.77928 367.121985 314.154866 365.058341 294.15562 365.058341 212.283694 365.058341 164.993803 414.998488 164.993803 502.517564 164.993803 587.725358 210.200439 634.776405 293.11399 634.776405 311.029985 634.776405 325.612769 633.76522 348.736902 630.669756L348.736902 373.312913 348.736902 373.312913ZM767.887824 247.430724 767.887824 618.886357C767.887824 746.811551 758.30485 808.328732 730.180907 861.364341 703.931893 912.356946 669.34986 944.508496 597.894209 980.02378L447.691517 909.240846C519.147167 876.036838 553.729203 846.691843 575.811706 801.910804 598.935836 756.118579 606.227231 703.082968 606.227231 563.580743L606.227231 247.430724 767.887824 247.430724ZM606.227231 0.825457 768.096151 0.825457 768.096151 165.297758 606.227231 165.297758 606.227231 0.825457ZM865.571655 283.957197C937.048138 250.732553 1005.378904 236.080691 1079.959435 236.080691 1163.081316 236.080691 1217.641765 257.955302 1241.828358 300.6727 1255.369515 324.61095 1259.74435 355.771952 1259.74435 422.427602L1259.74435 748.070374C1187.267905 758.388585 1095.792176 765.797063 1028.690529 765.797063 893.070623 765.797063 832.239573 718.95238 832.239573 614.965439 832.239573 502.496927 913.090705 450.493138 1111.604082 433.963364L1111.604082 398.675078C1111.604082 369.577719 1096.812971 359.053144 1055.98117 359.053144 996.19175 359.053144 928.90261 375.768647 865.779982 407.961469L865.571655 283.957197ZM1118.895474 538.796396C1011.816164 549.11461 977.025803 565.850749 977.025803 607.515688 977.025803 638.717963 997.025052 653.349185 1041.190059 653.349185 1065.355819 653.349185 1087.438322 651.285544 1118.874641 646.126438L1118.874641 538.796396 1118.895474 538.796396ZM1338.491392 272.400799C1434.112802 247.430724 1512.839012 236.080691 1592.627681 236.080691 1675.541234 236.080691 1735.559811 254.859839 1771.162641 291.179944 1804.682217 325.436407 1815.348483 362.994699 1815.348483 443.064024L1815.348483 757.356763 1653.458731 757.356763 1653.458731 449.461316C1653.458731 387.964774 1632.417852 365.058341 1574.732518 365.058341 1552.629183 365.058341 1532.650766 367.121985 1500.151987 376.614738L1500.151987 757.377399 1338.491392 757.377399 1338.491392 272.400799ZM1878.262787 844.834566C1934.90649 873.931924 1991.591862 887.366235 2051.589609 887.366235 2157.627292 887.366235 2202.833929 844.648838 2202.833929 742.704905L2202.833929 739.609441C2171.376777 755.086757 2139.690468 761.504686 2097.81704 761.504686 1955.968199 761.504686 1865.763254 668.847141 1865.763254 522.122166 1865.763254 339.902541 1999.299905 236.926785 2235.541032 236.926785 2304.913428 236.926785 2369.077683 244.149532 2446.762266 259.833216L2391.347681 375.397191C2348.265967 367.142622 2387.806148 374.159004 2355.328199 371.063541L2355.328199 387.779046 2357.411456 455.466516 2358.43225 542.964955C2359.49471 564.8602 2359.49471 586.693538 2360.55717 608.588783L2360.55717 652.317366C2360.55717 789.75595 2348.87011 854.16223 2314.288074 907.404203 2263.873303 985.389249 2176.605747 1024 2052.610404 1024 1989.508608 1024 1934.90649 1014.692972 1878.262787 992.797727L1878.262787 844.834566 1878.262787 844.834566ZM2199.709045 366.090163 2194.500907 366.090163 2182.813847 366.090163C2151.356695 365.058341 2114.503913 373.312913 2089.275694 388.996594 2050.547982 410.871205 2030.569566 450.493138 2030.569566 506.62421 2030.569566 586.672902 2070.568064 632.506399 2142.023711 632.506399 2164.085385 632.506399 2182.022209 628.39975 2202.854761 622.188186L2202.854761 610.611152 2202.854761 566.882569C2202.854761 548.103424 2201.792302 527.260635 2201.792302 505.386027L2200.771504 431.507627 2199.709045 378.472018 2199.709045 366.090163ZM2697.815324 234.01705C2859.47594 234.01705 2958.222222 334.929163 2958.222222 498.369641 2958.222222 665.937405 2855.330247 770.956169 2691.33642 770.956169 2529.467492 770.956169 2429.658741 670.064691 2429.658741 507.676669 2429.929566 339.056447 2532.821532 234.01705 2697.815324 234.01705ZM2694.482119 641.772154C2756.563143 641.772154 2793.22843 590.820821 2793.22843 502.290563 2793.22843 414.792124 2757.583929 362.788335 2695.544576 362.788335 2631.380338 362.788335 2594.673377 413.760304 2594.673377 502.290563 2594.673377 590.820821 2631.567815 641.772154 2694.482119 641.772154L2694.482119 641.772154ZM2694.482119 641.772154" /></svg>