<?xml version="1.0" standalone="no"?><!DOCTYPE svg PUBLIC "-//W3C//DTD SVG 1.1//EN" "http://www.w3.org/Graphics/SVG/1.1/DTD/svg11.dtd"><svg t="1544669587933" class="icon" style="" viewBox="0 0 1024 1024" version="1.1" xmlns="http://www.w3.org/2000/svg" p-id="14016" xmlns:xlink="http://www.w3.org/1999/xlink" width="200" height="200"><defs><style type="text/css"></style></defs><path d="M433.291892 583.345931c64.398706 0 125.164674-6.53381 179.859367-17.910928 34.649148-95.550193 126.029368-164.118871 233.398748-164.118871 3.862981 0 7.590885 0.38374 11.414981 0.576121 0.231267-2.65241 0.903579-5.265934 0.903579-7.995091L858.868567 249.111614c0 104.659665-190.485379 189.409884-425.576675 189.409884S7.715217 353.771279 7.715217 249.111614l0 144.786571C7.715217 498.595712 198.200596 583.345931 433.291892 583.345931" p-id="14017" fill="#13227a"></path><path d="M433.291892 386.555963c235.090273 0 425.576675-84.750219 425.576675-189.447746 0-104.621802-190.485379-189.372022-425.576675-189.372022S7.715217 92.486414 7.715217 197.108217C7.715217 301.805744 198.200596 386.555963 433.291892 386.555963" p-id="14018" fill="#13227a"></path><path d="M433.291892 780.134877c23.61893 0 46.641273-1.076518 69.222571-2.728134l96.780207-96.78123c0.249687-0.230244 0.443092-0.422625 0.63445-0.615007-1.211595-9.915837-1.807159-20.024056-1.807159-30.287817 0-9.993608 0.74906-19.793812 1.883907-29.518291-51.158147 9.724479-107.523899 15.105023-166.713976 15.105023-235.090273 0-425.576675-84.749196-425.576675-189.409884l0 144.785547C7.715217 695.385681 198.200596 780.134877 433.291892 780.134877" p-id="14019" fill="#13227a"></path><path d="M426.277128 853.624634l21.889543-21.8701c-4.996804 0.076748-9.839089 0.345877-14.874779 0.345877-235.05241 0-425.538813-84.749196-425.538813-189.409884l0 144.824433c0 99.586113 172.536588 180.954305 391.753335 188.641381C394.086985 928.650375 402.351206 877.607862 426.277128 853.624634" p-id="14020" fill="#13227a"></path><path d="M676.799882 649.762597c0 93.744058 76.044954 169.730683 169.750125 169.730683 93.706195 0 169.712263-75.986625 169.712263-169.730683s-76.005045-169.731706-169.712263-169.731706C752.843812 480.030891 676.799882 556.018539 676.799882 649.762597M849.06734 590.68713c0-31.17093 25.308409-56.499805 56.518225-56.499805s56.519248 25.328875 56.519248 56.499805c0 31.248701-25.309432 56.577576-56.519248 56.577576S849.06734 621.935832 849.06734 590.68713M790.549575 851.894224l0 6.458085c0 9.339716-7.629771 16.949021-16.969487 16.949021l-46.641273 0 0 46.660716c0 9.301853-7.590885 16.912182-16.911158 16.912182l-46.641273 0 0 46.660716c0 9.301853-7.590885 16.949021-16.969487 16.949021l-47.505967 0-11.799744 11.838629c-7.245008 7.225565-79.831186 11.06808-98.010221-7.110955-18.180058-18.142196-14.317077-90.746794-7.072069-98.010221l172.940794-172.960237c6.091742 13.530155 13.682627 26.059516 22.388916 37.897122L528.342712 923.115312c-7.245008 7.265474-7.245008 19.064194 0 26.28976s19.044752 7.226588 26.28976 0l147.207713-147.246599C726.477304 825.566602 756.860289 842.554508 790.549575 851.894224" p-id="14021" fill="#13227a"></path></svg>