<?xml version="1.0" standalone="no"?><!DOCTYPE svg PUBLIC "-//W3C//DTD SVG 1.1//EN" "http://www.w3.org/Graphics/SVG/1.1/DTD/svg11.dtd"><svg t="1544617459383" class="icon" style="" viewBox="0 0 1925 1024" version="1.1" xmlns="http://www.w3.org/2000/svg" p-id="2923" xmlns:xlink="http://www.w3.org/1999/xlink" width="375.9765625" height="200"><defs><style type="text/css"></style></defs><path d="M0 509.952a962.56 509.952 0 1 0 1925.12 0 962.56 509.952 0 1 0-1925.12 0Z" fill="#0392A7" p-id="2924"></path><path d="M552.96 407.552c45.056 0 75.776 8.192 90.112 24.576 14.336 16.384 18.432 47.104 10.24 88.064-8.192 43.008-24.576 73.728-47.104 92.16-24.576 18.432-59.392 26.624-108.544 26.624h-73.728L471.04 407.552h81.92zM262.144 851.968h116.736l28.672-143.36h100.352c45.056 0 79.872-4.096 110.592-14.336 28.672-8.192 55.296-24.576 77.824-47.104 20.48-18.432 34.816-36.864 47.104-59.392 12.288-22.528 20.48-45.056 26.624-71.68 12.288-63.488 2.048-112.64-28.672-149.504-30.72-34.816-79.872-53.248-149.504-53.248h-225.28l-104.448 538.624zM858.112 174.08h118.784l-28.672 143.36h106.496c65.536 0 112.64 12.288 137.216 34.816 24.576 22.528 32.768 59.392 22.528 110.592l-49.152 249.856H1044.48l47.104-237.568c6.144-26.624 4.096-45.056-6.144-55.296s-28.672-14.336-59.392-14.336h-94.208l-61.44 307.2h-118.784l106.496-538.624z m604.16 233.472c45.056 0 75.776 8.192 90.112 24.576 14.336 16.384 18.432 47.104 10.24 88.064-6.144 45.056-22.528 75.776-47.104 94.208-24.576 18.432-59.392 26.624-108.544 26.624h-73.728l45.056-233.472h83.968zM1171.456 851.968h116.736l28.672-143.36h100.352c45.056 0 79.872-4.096 110.592-14.336 28.672-8.192 55.296-24.576 77.824-47.104 20.48-18.432 34.816-36.864 47.104-59.392 12.288-22.528 20.48-45.056 26.624-71.68 12.288-63.488 2.048-112.64-28.672-149.504-30.72-34.816-79.872-53.248-149.504-53.248h-225.28l-104.448 538.624z" fill="#FFFFFF" p-id="2925"></path></svg>