<?xml version="1.0" standalone="no"?><!DOCTYPE svg PUBLIC "-//W3C//DTD SVG 1.1//EN" "http://www.w3.org/Graphics/SVG/1.1/DTD/svg11.dtd"><svg t="1544617635623" class="icon" style="" viewBox="0 0 1024 1024" version="1.1" xmlns="http://www.w3.org/2000/svg" p-id="6449" xmlns:xlink="http://www.w3.org/1999/xlink" width="200" height="200"><defs><style type="text/css"></style></defs><path d="M816.64 320A122.026667 122.026667 0 0 1 938.666667 442.026667v161.28A122.026667 122.026667 0 0 1 816.64 725.333333H512c0 16.64 13.653333 40.96 30.293333 40.96H725.333333v71.68a122.026667 122.026667 0 0 1-122.026666 122.026667H420.693333A122.026667 122.026667 0 0 1 298.666667 837.973333v-160a121.6 121.6 0 0 1 122.026666-121.6h224a121.6 121.6 0 0 0 121.6-122.026666V320h50.346667m-182.613333 503.04c-17.066667 0-30.72 12.8-30.72 37.973333 0 25.173333 13.653333 30.293333 30.72 30.293334a30.293333 30.293333 0 0 0 30.293333-30.293334c0-25.173333-13.653333-37.973333-30.293333-37.973333m-426.666667-76.373333A122.026667 122.026667 0 0 1 85.333333 624.64v-161.28A122.026667 122.026667 0 0 1 207.36 341.333333H512c0-16.64-13.653333-40.96-30.293333-40.96H298.666667V228.693333A122.026667 122.026667 0 0 1 420.693333 106.666667h182.613334A122.026667 122.026667 0 0 1 725.333333 228.693333v160a121.6 121.6 0 0 1-122.026666 121.6H379.306667a121.6 121.6 0 0 0-121.6 122.026667v114.346667H207.36M389.973333 243.626667c17.066667 0 30.72-12.8 30.72-37.973334 0-25.173333-13.653333-30.293333-30.72-30.293333-16.64 0-30.293333 5.12-30.293333 30.293333s13.653333 37.973333 30.293333 37.973334z" fill="" p-id="6450"></path><path d="M395.264 954.837333c-38.186667-10.24-67.456-34.090667-83.072-67.498666-9.728-20.864-10.112-25.856-10.154667-126.165334-0.042667-117.12 2.432-131.157333 28.416-161.493333 8.234667-9.642667 24.234667-22.058667 35.541334-27.648 20.053333-9.813333 24.704-10.197333 163.797333-12.288 133.589333-2.048 144.469333-2.773333 162.730667-11.264 26.709333-12.416 45.653333-29.312 59.733333-53.205333 11.52-19.626667 11.861333-22.272 13.269333-97.706667l1.450667-77.653333 39.765333 2.176c45.866667 2.474667 64.170667 9.002667 89.514667 31.914666 36.394667 32.853333 37.077333 35.882667 37.077333 168.832 0 103.850667-0.853333 118.741333-7.68 131.2a143.573333 143.573333 0 0 1-57.045333 56.746667l-22.058667 11.648-168.533333 1.322667-168.576 1.322666 2.901333 11.690667c1.578667 6.442667 6.997333 16.085333 12.032 21.461333 8.917333 9.557333 11.178667 9.770667 103.808 9.770667h94.72v44.8c0 70.528-16.810667 103.978667-65.706666 131.072l-23.253334 12.885333-112.810666 0.768c-62.08 0.426667-118.698667-0.768-125.866667-2.688z m261.12-72.192c9.386667-9.472 10.794667-13.866667 8.789333-28.8-2.986667-22.314667-11.861333-31.146667-31.232-31.146666-19.925333 0-28.672 9.258667-31.36 33.28-1.792 15.872-0.512 21.162667 6.954667 28.672 12.8 12.8 32.853333 11.946667 46.805333-2.005334z" fill="#FFCC00" p-id="6451"></path><path d="M398.890667 954.88c-38.869333-6.4-82.602667-45.824-92.842667-83.754667-3.114667-11.648-4.309333-54.570667-3.370667-122.368 1.408-98.858667 2.005333-105.514667 11.52-124.842666 5.546667-11.221333 17.109333-26.581333 25.728-34.133334 28.757333-25.258667 37.12-26.88 148.650667-28.8 187.690667-3.242667 210.218667-7.082667 243.413333-41.258666 27.392-28.245333 30.122667-38.4 33.024-123.008l2.602667-76.117334 40.576 2.346667c22.314667 1.322667 47.36 5.205333 55.637333 8.704 23.04 9.6 57.941333 44.458667 62.805334 62.72 6.528 24.405333 10.368 135.68 6.826666 196.992-3.029333 52.48-3.968 56.618667-16.853333 75.946667-8.234667 12.288-24.618667 27.605333-41.216 38.528l-27.605333 18.133333-167.338667 0.341333c-92.032 0.170667-168.192 1.194667-169.216 2.218667-4.906667 4.906667 15.104 34.986667 25.045333 37.674667 5.973333 1.621333 50.389333 3.114667 98.730667 3.370666l87.893333 0.426667v38.826667c0 74.197333-13.909333 104.362667-62.037333 134.912l-26.922667 17.066666-108.501333-0.469333c-59.648-0.298667-116.608-1.834667-126.549333-3.456z m255.146666-73.301333c12.16-10.922667 13.354667-13.994667 10.709334-28.074667-3.84-20.608-12.842667-29.098667-30.805334-29.098667-18.602667 0-26.666667 8.234667-30.506666 31.146667-2.773333 16.384-1.877333 19.328 8.533333 28.288 15.274667 13.141333 25.386667 12.586667 42.026667-2.261333z" fill="#FDD835" p-id="6452"></path><path d="M182.656 742.229333c-37.546667-9.173333-73.130667-39.893333-86.357333-74.538666-6.357333-16.597333-7.168-34.304-6.058667-129.749334 1.152-96.426667 2.304-112.554667 9.173333-126.378666 11.050667-22.144 36.309333-46.592 59.392-57.429334 18.645333-8.789333 26.965333-9.258667 188.074667-10.453333l168.533333-1.28-2.858666-11.733333a58.325333 58.325333 0 0 0-12.032-21.504c-8.96-9.557333-11.221333-9.813333-103.808-9.813334h-94.72l0.085333-48.768c0.128-57.088 6.698667-76.586667 35.84-106.368 31.829333-32.554667 47.061333-35.754667 171.733333-35.754666 126.336 0 139.946667 2.56 173.525334 32.768 15.786667 14.208 24.405333 26.496 31.061333 44.245333 8.576 22.997333 9.088 31.36 7.808 131.072-1.493333 118.485333-1.92 120.490667-33.28 153.514667-33.578667 35.370667-32.426667 35.157333-195.84 37.674666-162.645333 2.56-162.005333 2.432-196.693333 34.389334-32.64 30.122667-39.125333 51.2-41.130667 133.674666l-1.706667 70.528-28.885333-0.426666c-15.829333-0.298667-34.688-1.92-41.813333-3.669334zM409.173333 236.842667c10.112-8.704 12.202667-13.909333 12.202667-30.72 0-23.338667-8.576-32.554667-30.293333-32.554667-21.418667 0-32.64 10.581333-32.64 30.890667 0 20.992 6.016 33.365333 18.730666 38.485333 14.72 5.973333 18.944 5.12 32-6.101333z" fill="#3C78AA" p-id="6453"></path></svg>