<?xml version="1.0" standalone="no"?><!DOCTYPE svg PUBLIC "-//W3C//DTD SVG 1.1//EN" "http://www.w3.org/Graphics/SVG/1.1/DTD/svg11.dtd"><svg t="1544669075476" class="icon" style="" viewBox="0 0 1024 1024" version="1.1" xmlns="http://www.w3.org/2000/svg" p-id="7127" xmlns:xlink="http://www.w3.org/1999/xlink" width="200" height="200"><defs><style type="text/css"></style></defs><path d="M682.099668 986.578073h-102.059801c-10.20598 0-17.009967 6.803987-17.009967 17.009967s6.803987 17.009967 17.009967 17.009967h102.059801c10.20598 0 17.009967-6.803987 17.009967-17.009967s-6.803987-17.009967-17.009967-17.009967zM409.940199 986.578073H307.880399c-10.20598 0-17.009967 6.803987-17.009967 17.009967s6.803987 17.009967 17.009967 17.009967h102.0598c10.20598 0 17.009967-6.803987 17.009967-17.009967s-6.803987-17.009967-17.009967-17.009967zM580.039867 918.538206c3.401993 0 10.20598 0 13.607974-3.401993l68.039867-68.039867c6.803987-6.803987 6.803987-17.009967 0-23.813954s-17.009967-6.803987-23.813954 0l-68.039867 68.039867c-6.803987 6.803987-6.803987 17.009967 0 23.813954 0 3.401993 6.803987 3.401993 10.20598 3.401993zM937.249169 102.059801c0-81.647841-278.963455-102.059801-425.249169-102.059801C369.116279 0 103.760797 20.41196 86.750831 95.255814V102.059801C86.750831 173.501661 307.880399 204.119601 512 204.119601c10.20598 0 17.009967 6.803987 17.009967 17.009967s-6.803987 17.009967-17.009967 17.009967c-108.863787 0-326.591362-6.803987-418.445183-71.441861 23.813953 102.059801 98.657807 156.491694 159.893688 204.119602-40.82392 10.20598-68.039867 27.215947-78.245847 54.431893-6.803987 20.41196-6.803987 44.225914 3.401993 68.039868 20.41196 44.225914 68.039867 91.853821 132.677741 132.67774 3.401993 0 3.401993 3.401993 6.803987 3.401994 10.20598 6.803987 23.813953 13.607973 37.421927 20.41196 3.401993 3.401993 6.803987 3.401993 10.20598 6.803987 17.009967 6.803987 34.019934 17.009967 51.0299 23.813953 78.245847 30.61794 153.089701 47.627907 210.923588 47.627907 71.44186 0 122.471761-20.41196 139.481728-61.23588 17.009967-40.82392-3.401993-88.451827-54.431894-139.481728 74.843854-68.039867 153.089701-146.285714 193.913621-255.149502-71.44186 47.627907-210.923588 102.059801-364.013289 102.059801-10.20598 0-17.009967-6.803987-17.009967-17.009967s10.20598-17.009967 20.411961-17.009966c200.717608 0 360.611296-95.255814 377.621262-125.873755 0-3.401993 3.401993-3.401993 3.401993-6.803986 6.803987-30.61794 10.20598-68.039867 10.20598-105.461794zM209.222591 483.083056c-6.803987-17.009967-6.803987-30.61794-3.401993-40.82392 10.20598-23.813953 40.82392-37.421927 85.049834-40.82392 34.019934 27.215947 57.833887 54.431894 57.833887 88.451827 0 51.0299-10.20598 78.245847-23.813954 108.863788-57.833887-40.82392-98.657807-81.647841-115.667774-115.667775z m476.27907 71.441861l3.401993-3.401993c40.82392 40.82392 57.833887 78.245847 47.627907 102.0598-13.607973 34.019934-85.049834 51.0299-183.707641 34.019934 37.421927-47.627907 81.647841-88.451827 132.677741-132.677741zM518.803987 748.438538c-37.421927-6.803987-78.245847-20.41196-115.667774-34.019933s-71.44186-30.61794-102.059801-51.029901c-6.803987 27.215947-10.20598 57.833887-10.20598 105.461794 0 132.677741 204.119601 248.345515 214.325581 251.747509 3.401993 0 6.803987 3.401993 6.803987 3.401993 3.401993 0 6.803987 0 10.20598-3.401993 6.803987-3.401993 6.803987-13.607973 3.401993-20.41196-37.421927-108.863787-34.019934-187.109635-6.803986-251.747509z" fill="#13227a" p-id="7128"></path></svg>