<?xml version="1.0" standalone="no"?><!DOCTYPE svg PUBLIC "-//W3C//DTD SVG 1.1//EN" "http://www.w3.org/Graphics/SVG/1.1/DTD/svg11.dtd"><svg t="1544668817625" class="icon" style="" viewBox="0 0 1024 1024" version="1.1" xmlns="http://www.w3.org/2000/svg" p-id="5582" xmlns:xlink="http://www.w3.org/1999/xlink" width="200" height="200"><defs><style type="text/css"></style></defs><path d="M544.939 115.04s-91.531-12.437-230.198 90.912c0-0.01-124.106 114.827-133.034 201.803 0 0.01 133.898-182.016 363.232-292.715z m396.085 205.77c25.43-23.807 32.565-108.17 32.565-108.17 7.99-88.8-33.258-125.6-33.258-125.6-69.238-70.4-236.918-12.95-236.918-12.95-211.637 67.211-387.285 232.64-387.285 232.64C37.973 550.24 16.693 799.126 16.693 799.126c-11.946 170.891 135.755 172.16 135.755 172.16 152.64 7.574 224.267-46.858 233.216-54.272 96.235 50.656 183.381 47.595 183.381 47.595 338.006-21.45 405.568-290.485 405.568-290.485h-224.64c-50.581 121.066-200.938 96.864-200.938 96.864-147.734-29.643-149.078-187.04-149.078-187.04H996.14l0.01-0.043c7.062-113.43-18.25-199.093-55.125-263.093zM753.568 158.785c-224.48 131.776-277.707 195.37-277.707 195.37 53.355-45.311 126.176-41.94 126.176-41.94 166.592 18.4 161.163 158.143 161.28 158.74H399.936c13.579-56.885 33.877-81.162 42.197-89.13-153.802 130.443-247.573 324.49-247.573 324.49 28.203 84.63 105.312 159.478 169.45 198.465-48.053 31.648-103.775 36.96-103.775 36.96-135.755 16.117-131.766-90.166-131.766-90.166 3.915-110.346 114.422-282.4 114.422-282.4 101.12-144.042 240.544-265.077 240.544-265.077 137.749-114.005 256.522-169.472 256.522-169.472 124.736-62.56 182.667-14.155 182.667-14.155v-0.01h0.032c73.621 55.402 22.016 166.368 11.03 187.989-74.134-118.208-180.118-149.664-180.118-149.664z" p-id="5583" fill="#1296db"></path></svg>