<?xml version="1.0" standalone="no"?><!DOCTYPE svg PUBLIC "-//W3C//DTD SVG 1.1//EN" "http://www.w3.org/Graphics/SVG/1.1/DTD/svg11.dtd"><svg t="1544617611544" class="icon" style="" viewBox="0 0 1433 1024" version="1.1" xmlns="http://www.w3.org/2000/svg" p-id="5821" xmlns:xlink="http://www.w3.org/1999/xlink" width="279.8828125" height="200"><defs><style type="text/css"></style></defs><path d="M89.2928 590.0032c0 192.0768 156.288 348.3904 348.3904 348.3904h315.5456l-223.1296-223.1552a382.3616 382.3616 0 0 1-23.2192-25.3696c-2.5344-2.9696-4.736-6.144-7.1424-9.1648-4.6592-5.8624-9.2672-11.6224-13.5168-17.7152-2.6624-3.7376-4.992-7.6032-7.5008-11.4432-3.6096-5.5552-7.2704-11.0848-10.5984-16.7936-2.4576-4.1728-4.608-8.448-6.8864-12.6976a425.216 425.216 0 0 1-8.6016-16.6144c-2.0736-4.48-4.0192-9.0368-5.9648-13.568-2.3808-5.6064-4.7616-11.1616-6.8864-16.7424a406.1952 406.1952 0 0 1-4.9152-14.2336 376.7552 376.7552 0 0 1-9.088-31.5904 361.5488 361.5488 0 0 1-8.7552-49.5616c-0.5888-4.992-1.0752-9.984-1.4592-15.0016a407.552 407.552 0 0 1-0.7936-17.664c-0.1792-4.9664-0.256-9.9584-0.256-14.9248 0.0768-6.016 0.3584-11.9552 0.6912-17.9456 0.2816-4.8896 0.512-9.8048 0.9472-14.6944 0.5888-6.1184 1.4848-12.2368 2.304-18.304 0.6656-4.736 1.2032-9.4208 2.0992-14.1824 1.1008-6.3744 2.5856-12.6464 4.0448-18.9696 0.9728-4.3776 1.8432-8.8064 3.0208-13.184 1.8432-6.9376 4.0704-13.7216 6.2976-20.5824 1.2288-3.712 2.2272-7.3984 3.5328-11.0848 3.3536-9.2672 7.0912-18.4064 11.1872-27.4688 0.4864-1.152 0.8704-2.3552 1.408-3.5072 4.5824-9.9584 9.5744-19.7632 15.0272-29.44a336.4352 336.4352 0 0 0-27.392-1.0752C245.6064 241.6384 89.2928 397.9008 89.2928 590.0032M604.4672 232.2176c3.584 1.664 7.0656 3.4816 10.5984 5.248a384.256 384.256 0 0 1 45.44 26.752c3.3792 2.2784 6.784 4.608 10.1376 7.0144 5.5296 4.0448 10.8544 8.32 16.1792 12.6208 2.8928 2.3552 5.8624 4.6848 8.7296 7.0912 6.2976 5.4784 12.3904 11.1616 18.3808 17.0496 1.5616 1.5104 3.2 2.8928 4.7616 4.4288 7.296 7.4752 14.3616 15.2064 21.0688 23.2192 1.9456 2.2784 3.7376 4.736 5.6064 7.0656 4.736 5.8624 9.3184 11.776 13.696 17.9456 2.2784 3.1744 4.4288 6.5024 6.6304 9.728 15.872 23.6032 29.0816 48.8704 39.3984 75.3664 1.3568 3.456 2.7648 6.8864 4.0704 10.4192 2.9184 8.1408 5.5296 16.4352 7.9104 24.8064 0.5888 1.92 1.3056 3.8144 1.792 5.76 2.816 10.3424 5.1456 20.8896 7.0912 31.5904 0.5376 2.8928 0.8192 5.8368 1.3056 8.7296 1.0496 6.272 2.176 12.5696 2.8672 18.944 1.0752-1.7408 2.2784-3.3792 3.456-5.0688l3.1488-4.736c4.608-6.656 9.4208-13.2096 14.5664-19.5072l1.152-1.3312c4.9152-5.8624 10.0864-11.52 15.4368-16.9472l3.9424-3.968c5.7344-5.6064 11.5968-11.0336 17.7664-16.1792 0.9472-0.7936 1.9712-1.536 2.9952-2.304 5.5296-4.5312 11.2384-8.8064 17.1776-12.928 1.4592-0.9728 2.816-1.9968 4.3008-2.944 6.656-4.4544 13.4912-8.6272 20.5056-12.4928l4.4032-2.2784c6.2976-3.3536 12.7232-6.4512 19.328-9.3184 1.3568-0.5888 2.6624-1.2288 3.9936-1.7664 7.5008-3.1488 15.1296-5.9392 22.9376-8.448l5.3504-1.5872c7.2192-2.176 14.5664-4.096 22.0672-5.7088 0.9728-0.1792 1.8688-0.4608 2.8416-0.6656 8.1408-1.6384 16.4864-2.8416 24.9088-3.7888l5.9136-0.5888c8.6784-0.8192 17.3568-1.2544 26.0864-1.28 11.52 0.0512 23.0144 0.8192 34.4576 2.2528 7.1168 0.8448 14.1312 1.9712 21.1712 3.3536 1.9712 0.4096 3.9424 0.6912 5.9136 1.1776 7.8848 1.7408 15.7184 3.7376 23.4752 6.1952a348.5696 348.5696 0 0 0-101.8112-235.4176 346.112 346.112 0 0 0-246.3488-102.016A346.1888 346.1888 0 0 0 544.384 209.92c10.24 2.816 20.3008 6.144 30.208 9.7792 2.7904 1.0496 5.4784 2.2528 8.2432 3.3536 7.3472 2.8672 14.5408 5.8624 21.632 9.1648" fill="#2D9DE2" p-id="5822"></path><path d="M786.0736 590.0032c0-10.3936-0.5376-20.6848-1.4336-30.7968-0.2816-3.5328-0.896-6.8608-1.3056-10.24-0.7936-6.7072-1.5104-13.3888-2.6624-20.0192-0.6912-3.968-1.7152-7.808-2.5856-11.7504-1.28-5.8624-2.4064-11.7504-3.9424-17.5872-1.152-4.1472-2.56-8.1664-3.8144-12.2368-1.6128-5.4016-3.1744-10.9056-5.0944-16.2048-1.5616-4.1216-3.3536-8.1408-4.9664-12.2368-2.0736-5.0688-4.0448-10.1376-6.2976-15.1296-1.92-4.0448-4.096-8.0128-6.0928-11.9808-2.4576-4.7616-4.8128-9.5488-7.3984-14.1568-2.2528-3.9936-4.7872-7.7568-7.1424-11.5968-2.7904-4.48-5.504-8.96-8.4224-13.312-2.6368-3.7632-5.4272-7.3984-8.1664-11.0592-3.0976-4.1472-6.144-8.32-9.4464-12.3136-2.8928-3.584-6.0416-6.9632-9.0624-10.4704-3.4048-3.84-6.8096-7.68-10.368-11.3408-3.2512-3.3536-6.656-6.5792-10.0352-9.7792-3.712-3.5072-7.3984-7.04-11.2384-10.3936-3.5072-3.1232-7.1936-6.0416-10.88-8.9856a360.6528 360.6528 0 0 0-12.0576-9.3696c-3.84-2.7648-7.7568-5.4528-11.7248-8.064a325.6832 325.6832 0 0 0-12.8768-8.3712 349.7472 349.7472 0 0 0-12.3648-7.0912 326.9632 326.9632 0 0 0-26.6496-13.2864 335.0528 335.0528 0 0 0-57.1904-19.7888l-7.9872-1.792c-1.4848 2.3296-2.9952 4.6336-4.4032 6.9632a344.0128 344.0128 0 0 0-45.3888 125.2864c-0.8192 5.12-1.3824 10.2656-1.92 15.4112-0.4864 4.6336-1.0496 9.2416-1.3824 13.8496-0.3584 5.1712-0.4608 10.2912-0.5888 15.4624-0.1024 4.608-0.256 9.216-0.1792 13.824 0.0768 5.248 0.4096 10.368 0.7424 15.5392 0.2816 4.5824 0.4864 9.1648 0.9472 13.696 0.4864 5.1968 1.28 10.3424 2.048 15.5136 0.64 4.48 1.2288 9.0112 2.0736 13.4656 0.9472 5.1712 2.2016 10.3168 3.4304 15.4624 1.024 4.352 1.92 8.7808 3.1488 13.1328 1.3824 5.1712 3.1488 10.2144 4.7616 15.3856 1.408 4.1728 2.6624 8.4992 4.1984 12.672 1.8944 5.0944 4.1472 10.1376 6.2208 15.232 1.7664 3.9936 3.3024 8.0896 5.1968 12.1344 2.3808 5.0944 5.1456 10.0608 7.7824 15.0528 1.9456 3.7632 3.84 7.6544 5.9392 11.3152 2.9952 5.1968 6.4 10.1632 9.6256 15.232 2.2016 3.4048 4.1984 6.8608 6.528 10.1632 3.84 5.4784 8.0384 10.7264 12.2368 16.0256 2.0992 2.688 4.096 5.4784 6.2976 8.1408 6.5536 7.808 13.4912 15.4624 20.864 22.8608l223.0784 223.0528V590.0032h-0.0512z m290.304 69.6832c2.176-2.6624 4.1472-5.4016 6.2464-8.0384 4.224-5.3504 8.4224-10.7264 12.3136-16.256 2.3296-3.4048 4.3776-6.8864 6.656-10.2656 3.2512-5.12 6.656-10.24 9.6-15.4624 2.1504-3.7632 4.0704-7.7056 6.1184-11.5456 2.6624-5.0688 5.4016-10.2144 7.8592-15.4624 1.8432-4.0704 3.5072-8.1664 5.2224-12.3648 2.2272-5.2224 4.4032-10.4192 6.3232-15.744 1.536-4.3008 2.8928-8.6272 4.2752-13.0048 1.6896-5.3248 3.328-10.7008 4.7872-16.128 3.6608-14.3872 6.528-28.928 8.5504-43.6224 0.3584-2.6112 0.5632-5.3248 0.8192-7.9616-1.5872-0.5888-3.0976-1.28-4.736-1.8176a252.928 252.928 0 0 0-31.3344-8.6016 233.856 233.856 0 0 0-15.8208-2.5344c-2.4832-0.3584-4.864-0.768-7.3984-1.0752a247.68 247.68 0 0 0-23.4752-1.2032c-132.4288 0.1024-239.744 107.4432-239.8976 239.9232v207.0272l223.104-223.0528c7.3216-7.3984 14.208-14.976 20.7872-22.8096" fill="#7AC3F4" p-id="5823"></path><path d="M1312.3072 698.496a240.2048 240.2048 0 0 0-112.7168-203.2384l-0.0512 0.2816-0.6656 3.5328c-1.6128 9.9328-3.584 19.7888-5.9136 29.5936-0.8704 3.7376-2.0736 7.5008-3.072 11.2128-1.92 7.0912-3.8912 14.1568-6.1952 21.1456-1.408 4.1472-3.0208 8.2944-4.5824 12.4672a407.7824 407.7824 0 0 1-22.3232 49.4592c-5.4016 10.112-11.264 19.9424-17.6128 29.5168-2.3808 3.6096-4.6848 7.2704-7.1936 10.88-4.352 6.1696-9.0112 12.1856-13.7728 18.176-2.304 2.8416-4.4544 5.8112-6.8096 8.6272a385.28 385.28 0 0 1-22.9376 25.088l-223.104 223.1552h207.0272c132.4288-0.1536 239.7696-107.4688 239.9232-239.8976" fill="#2D9DE2" p-id="5824"></path></svg>