<?xml version="1.0" standalone="no"?><!DOCTYPE svg PUBLIC "-//W3C//DTD SVG 1.1//EN" "http://www.w3.org/Graphics/SVG/1.1/DTD/svg11.dtd"><svg t="1544670019688" class="icon" style="" viewBox="0 0 1024 1024" version="1.1" xmlns="http://www.w3.org/2000/svg" p-id="15780" xmlns:xlink="http://www.w3.org/1999/xlink" width="200" height="200"><defs><style type="text/css"></style></defs><path d="M260.007267 228.510414 134.017808 228.510414c-34.791387 0-62.996776 28.203342-62.996776 63.000869l0 125.990482c0 34.787294 28.205389 62.996776 62.996776 62.996776l125.990482 0c34.797527 0 63.000869-28.210505 63.000869-62.996776L323.00916 291.512307C323.00916 256.714779 294.804794 228.510414 260.007267 228.510414zM574.997288 228.510414 448.998619 228.510414c-34.787294 0-62.992683 28.203342-62.992683 63.000869l0 125.990482c0 34.787294 28.205389 62.996776 62.992683 62.996776l125.998669 0c34.793434 0 62.992683-28.210505 62.992683-62.996776L637.989971 291.512307C637.989971 256.714779 609.790722 228.510414 574.997288 228.510414zM889.983215 228.510414 763.98864 228.510414c-34.795481 0-62.996776 28.203342-62.996776 63.000869l0 125.990482c0 34.787294 28.201296 62.996776 62.996776 62.996776l125.994576 0c34.797527 0 62.996776-28.210505 62.996776-62.996776L952.979992 291.512307C952.979992 256.714779 924.780743 228.510414 889.983215 228.510414zM260.007267 543.498388 134.017808 543.498388c-34.791387 0-62.996776 28.205389-62.996776 62.998823l0 125.992529c0 34.789341 28.205389 62.998823 62.996776 62.998823l125.990482 0c34.797527 0 63.000869-28.210505 63.000869-62.998823L323.00916 606.498234C323.00916 571.7048 294.804794 543.498388 260.007267 543.498388zM574.997288 543.498388 448.998619 543.498388c-34.787294 0-62.992683 28.205389-62.992683 62.998823l0 125.992529c0 34.789341 28.205389 62.998823 62.992683 62.998823l125.998669 0c34.793434 0 62.992683-28.210505 62.992683-62.998823L637.989971 606.498234C637.989971 571.7048 609.790722 543.498388 574.997288 543.498388zM889.983215 543.498388 763.98864 543.498388c-34.795481 0-62.996776 28.205389-62.996776 62.998823l0 125.992529c0 34.789341 28.201296 62.998823 62.996776 62.998823l125.994576 0c34.797527 0 62.996776-28.210505 62.996776-62.998823L952.979992 606.498234C952.979992 571.7048 924.780743 543.498388 889.983215 543.498388z" p-id="15781" fill="#16ebbe"></path></svg>