<?xml version="1.0" standalone="no"?><!DOCTYPE svg PUBLIC "-//W3C//DTD SVG 1.1//EN" "http://www.w3.org/Graphics/SVG/1.1/DTD/svg11.dtd"><svg t="1544670188858" class="icon" style="" viewBox="0 0 1024 1024" version="1.1" xmlns="http://www.w3.org/2000/svg" p-id="16811" xmlns:xlink="http://www.w3.org/1999/xlink" width="200" height="200"><defs><style type="text/css"></style></defs><path d="M619.434667 547.669333L529.92 637.098667 386.901333 494.08l83.626667-83.626667-41.813333-41.301333-83.626667 83.029333-83.029333-83.029333-101.290667 101.290667a273.066667 273.066667 0 0 0-23.552 363.264L0 976.298667l41.813333 41.813333 137.386667-137.216a249.002667 249.002667 0 0 0 166.656 59.733333 281.6 281.6 0 0 0 196.266667-83.626666l101.461333-101.461334-76.8-76.8L655.872 588.8l-36.437333-41.301333z m-119.466667 262.058667a213.333333 213.333333 0 0 1-148.992 65.365333 184.832 184.832 0 0 1-143.104-59.733333l-5.888-5.888a206.933333 206.933333 0 0 1 5.888-291.498667l53.589333-53.589333L552.96 756.053333l-53.077333 53.589334zM1024 41.813333L982.186667 0 851.456 124.842667a249.002667 249.002667 0 0 0-166.656-59.733334 281.6 281.6 0 0 0-196.266667 83.626667l-101.632 95.573333L773.802667 631.466667l95.402666-95.402667a273.066667 273.066667 0 0 0 23.552-363.264C893.269333 172.544 1024 41.813333 1024 41.813333zM821.418667 488.192l-47.701334 47.701333-291.498666-291.584 47.701333-48.042666a213.333333 213.333333 0 0 1 148.992-65.365334 184.832 184.832 0 0 1 143.104 59.733334L827.733333 196.266667a201.386667 201.386667 0 0 1-6.314666 291.925333z" p-id="16812" fill="#e2bb1c"></path><path d="M860.757333 828.501333a235.008 235.008 0 0 0 146.176-17.92 237.994667 237.994667 0 0 0-146.176-18.090666 234.581333 234.581333 0 0 0 117.504-88.661334 236.970667 236.970667 0 0 0-135.594666 57.429334 235.605333 235.605333 0 0 0 57.514666-135.424 235.52 235.52 0 0 0-88.746666 117.333333 233.984 233.984 0 0 0-17.834667-145.92 236.970667 236.970667 0 0 0-18.090667 145.92 234.24 234.24 0 0 0-88.917333-117.333333 236.288 236.288 0 0 0 57.514667 135.424 236.288 236.288 0 0 0-135.68-57.429334 235.861333 235.861333 0 0 0 117.589333 88.576 235.776 235.776 0 0 0-145.749333 18.176 237.994667 237.994667 0 0 0 146.176 18.090667 234.581333 234.581333 0 0 0-117.504 88.661333 237.653333 237.653333 0 0 0 135.594666-57.429333 235.605333 235.605333 0 0 0-57.514666 135.424 235.52 235.52 0 0 0 88.746666-117.333333 233.984 233.984 0 0 0 17.834667 145.92 236.970667 236.970667 0 0 0 18.090667-145.92 235.52 235.52 0 0 0 88.917333 117.333333 236.288 236.288 0 0 0-57.514667-135.424 236.288 236.288 0 0 0 135.594667 57.429333 237.738667 237.738667 0 0 0-117.930667-88.832z" p-id="16813" fill="#e2bb1c"></path></svg>