<?xml version="1.0" standalone="no"?><!DOCTYPE svg PUBLIC "-//W3C//DTD SVG 1.1//EN" "http://www.w3.org/Graphics/SVG/1.1/DTD/svg11.dtd"><svg t="1544617600558" class="icon" style="" viewBox="0 0 1024 1024" version="1.1" xmlns="http://www.w3.org/2000/svg" p-id="5570" xmlns:xlink="http://www.w3.org/1999/xlink" width="200" height="200"><defs><style type="text/css"></style></defs><path d="M804.571429 292.425143A292.498286 292.498286 0 0 0 512 0a292.571429 292.571429 0 0 0-292.571429 292.425143h585.142858z m182.857142 292.425143H877.714286V416.694857l92.891428-92.891428a36.717714 36.717714 0 1 0-51.931428-51.858286l-73.142857 73.142857h-658.285715l-73.142857-73.142857a36.717714 36.717714 0 0 0-51.931428 51.931428L146.285714 416.768v168.082286H36.571429a36.571429 36.571429 0 1 0 0 73.142857H146.285714v36.571428c0.365714 56.466286 15.506286 111.908571 43.885715 160.768l-106.057143 105.325715a36.717714 36.717714 0 1 0 51.931428 51.931428l98.011429-97.28a327.753143 327.753143 0 0 0 241.371428 108.178286h4.388572V390.363429h73.142857v633.124571a327.753143 327.753143 0 0 0 237.714286-108.251429l98.011428 98.011429a36.717714 36.717714 0 0 0 51.931429-51.931429l-103.131429-103.058285c27.794286-50.249143 41.691429-107.081143 40.228572-164.498286v-35.84h109.714285a36.571429 36.571429 0 1 0 0-73.069714z" fill="#5BB878" p-id="5571"></path></svg>