<?xml version="1.0" standalone="no"?><!DOCTYPE svg PUBLIC "-//W3C//DTD SVG 1.1//EN" "http://www.w3.org/Graphics/SVG/1.1/DTD/svg11.dtd"><svg t="1544622041956" class="icon" style="" viewBox="0 0 1089 1024" version="1.1" xmlns="http://www.w3.org/2000/svg" p-id="5626" xmlns:xlink="http://www.w3.org/1999/xlink" width="212.6953125" height="200"><defs><style type="text/css"></style></defs><path d="M335.196596 806.029617C150.375489 806.029617 0 651.242213 0 460.996085c0-190.235234 150.375489-345.022638 335.196596-345.022638 102.236596 0 198.372766 48.607319 261.446808 129.383489h157.54349v99.066553a286.502128 286.502128 0 0 1 55.492085 23.726298l68.085106-70.089532 118.522553 121.986724-68.085106 70.089532a303.866553 303.866553 0 0 1 23.018213 57.126127h96.245106v172.511319h-96.245106a305.947234 305.947234 0 0 1-23.04 57.126128l68.085106 70.078638-118.522553 121.997617-68.085107-70.089531a285.957447 285.957447 0 0 1-55.492085 23.726297v99.066554H586.566809v-99.044766a287.842043 287.842043 0 0 1-55.492086-23.726298l-68.085106 70.089532-118.522553-121.997617 44.173617-45.448171a329.292255 329.292255 0 0 1-53.444085 4.477277zM612.362894 381.930213a245.335149 245.335149 0 0 0-73.728 31.482553l-14.096341 8.97634-61.548936-63.357276-59.261277 61.004255 61.548937 63.357277-8.714894 14.510298a262.111319 262.111319 0 0 0-30.589277 75.895829l-3.812766 16.601873h-86.985531v86.255659h86.985531l3.790979 16.580085a261.882553 261.882553 0 0 0 30.578383 75.884937l8.714894 14.521191-61.548936 63.346383 59.261276 61.004255 61.55983-63.346383 14.09634 8.965447a246.66417 246.66417 0 0 0 73.728 31.482553l16.122554 3.921702v89.545532h83.804595v-89.545532l16.11166-3.899914a246.435404 246.435404 0 0 0 73.717106-31.482554l14.107234-8.965446 61.548936 63.357276 59.261277-61.004255-61.548936-63.357277 8.714894-14.521191a262.111319 262.111319 0 0 0 30.589276-75.884936l3.812766-16.601873h86.985532v-86.255659h-86.985532l-3.790979-16.558298a261.882553 261.882553 0 0 0-30.589276-75.89583l-8.714894-14.510298 61.548936-63.357276-59.261276-61.004256-61.548936 63.357277-14.107234-8.965447a245.563915 245.563915 0 0 0-73.717107-31.482553l-16.133447-3.921702v-89.567319H628.452766v89.556425l-16.100766 3.878128zM356.11234 159.918298v86.887489c66.385702 6.89566 126.093617 45.971064 160.027234 105.994894l14.924256 15.349106a285.957447 285.957447 0 0 1 55.492085-23.726298V305.674894c-49.293617-84.316596-135.767149-138.708426-230.443575-145.756596z m81.266383 164.47183c-28.868085-22.833021-64.63183-35.905362-102.214808-35.905362-92.410553 0-167.598298 77.399149-167.598298 172.511319 0 79.795745 52.648851 147.652085 125.701447 166.912V547.240851h96.223319a305.958128 305.958128 0 0 1 23.04-57.126128l-68.085106-70.089532 92.922553-95.635063zM314.226383 160.201532c-144.994043 10.610383-260.967489 129.982638-271.283745 279.236085h83.804596c9.84783-101.724596 88.652255-182.827574 187.479149-192.980426v-86.255659zM126.769021 482.565447H42.942638c10.817362 156.410553 137.586383 280.33634 292.232171 280.33634 22.789447 0 45.208511-2.865021 67.126468-8.148425a307.744681 307.744681 0 0 1-12.789107-34.968511h-96.234213v-47.474383c-89.937702-18.737021-157.45634-95.787574-166.508936-189.745021z m543.59149 323.46417c-92.39966 0-167.587404-77.388255-167.587405-172.511319s75.187745-172.522213 167.598298-172.522213 167.598298 77.399149 167.598298 172.522213c0 33.508766-9.346723 66.015319-27.048851 94.001021l-35.110128-23.552a131.518638 131.518638 0 0 0 20.262128-70.449021c0-71.353191-56.385362-129.383489-125.71234-129.383489C601.055319 504.134809 544.680851 562.165106 544.680851 633.518298c0 71.353191 56.374468 129.383489 125.701447 129.383489 31.754894 0 62.050043-12.200851 85.340596-34.391149l28.475915 31.635064c-31.068596 29.587064-71.483915 45.883915-113.816511 45.883915zM796.083745 5.566638H1089.361702V48.694468H796.061957V5.555745z m0 86.25566h209.484255v43.12783h-209.484255v-43.138724z m251.392 0H1089.361702v43.12783h-41.896851v-43.138724z" fill="#d81e06" p-id="5627"></path></svg>