<?xml version="1.0" standalone="no"?><!DOCTYPE svg PUBLIC "-//W3C//DTD SVG 1.1//EN" "http://www.w3.org/Graphics/SVG/1.1/DTD/svg11.dtd"><svg t="1544617499533" class="icon" style="" viewBox="0 0 1024 1024" version="1.1" xmlns="http://www.w3.org/2000/svg" p-id="3430" xmlns:xlink="http://www.w3.org/1999/xlink" width="200" height="200"><defs><style type="text/css"></style></defs><path d="M280.00624 206.473144l205.672171 205.672171-128.778725 128.511733-65.145837-65.145836-77.071441 77.071441 231.392318 231.30332-42.896576 42.896575-41.294629-41.294629-44.409526 44.409526 41.294629 41.294629-40.493655 40.493655L44.965044 638.909786C-35.399288 558.634452 11.94714 474.443247 34.908378 451.482009l245.097862-245.008865z m0 0" fill="#146BCC" p-id="3431"></path><path d="M214.771406 552.493655l231.392317 231.392318-42.896576 42.896575-41.294629-41.294629-44.409525 44.409526 41.294628 41.294629-40.493655 40.493655L44.965044 638.909786C-35.399288 558.634452 11.94714 474.443247 34.908378 451.482009l149.96002-149.871023c-0.088997 0.266991-78.3174 142.662263 29.903008 250.882669z m288.439422 300.89901l38.001739 38.001738-38.001739 38.090735-38.001738-38.001738 38.001738-38.090735z m-96.383799-20.291327L362.417503 877.421867l44.409526 44.409525 44.409525-44.409525-44.409525-44.320529z m17.977403 93.179907l-44.409526 44.409525 44.409526 44.409525 44.409525-44.409525-44.409525-44.409525z m97.006779 31.059968l32.661915 32.661916-32.661915 32.661915-32.661916-32.661915 32.661916-32.661916z m0 0" fill="#2380F5" p-id="3432"></path><path d="M630.5656 817.170867l-205.494177-205.583174 128.60073-128.60073 65.145837 65.145837 77.071441-77.071441-231.392317-231.30332 42.896576-42.896575 41.294628 41.294628 44.409526-44.409525-41.383626-41.294629 40.493655-40.493655L865.695793 384.734226c80.364332 80.364332 32.83991 164.555536 9.967669 187.516773L630.5656 817.170867z m0 0" fill="#45B45B" p-id="3433"></path><path d="M695.889431 471.239353l-231.392317-231.392317 42.896576-42.896575 41.294628 41.294629 44.409526-44.409526-41.383626-41.383626 40.493655-40.493655L865.695793 384.734226c80.364332 80.364332 32.83991 164.555536 9.967669 187.516773L725.792438 722.033026c0.088997-0.266991 78.228403-142.662263-29.903007-250.793673zM407.361011 170.251347l-38.001738-38.001738 38.001738-38.090735 38.001738 38.001738-38.001738 38.090735z m96.472797 20.380323l44.409525-44.409525-44.409525-44.409525L459.424282 146.222145l44.409526 44.409525zM485.767408 97.362767l44.409525-44.409525-44.409525-44.409526-44.409526 44.409526 44.409526 44.409525z m-97.006779-31.059968l-32.483922-32.661916 32.661916-32.661916 32.483921 32.661916-32.661915 32.661916z m0 0" fill="#4BD46D" p-id="3434"></path></svg>